<svg width="22" height="23" viewBox="0 0 22 23" fill="none" xmlns="http://www.w3.org/2000/svg">
<path d="M9.94573 3.46289H2.98789C2.46065 3.46289 1.95501 3.67234 1.5822 4.04515C1.20938 4.41796 0.999939 4.92361 0.999939 5.45084V19.3665C0.999939 19.8938 1.20938 20.3994 1.5822 20.7722C1.95501 21.145 2.46065 21.3545 2.98789 21.3545H16.9036C17.4308 21.3545 17.9365 21.145 18.3093 20.7722C18.6821 20.3994 18.8915 19.8938 18.8915 19.3665V12.4087" stroke="#B2C2CB" stroke-width="1.5" stroke-linecap="round" stroke-linejoin="round"/>
<path d="M17.4006 1.97207C17.796 1.57664 18.3323 1.35449 18.8915 1.35449C19.4508 1.35449 19.9871 1.57664 20.3825 1.97207C20.7779 2.3675 21.0001 2.90382 21.0001 3.46304C21.0001 4.02226 20.7779 4.55857 20.3825 4.954L10.9397 14.3968L6.96381 15.3908L7.95778 11.4149L17.4006 1.97207Z" stroke="#B2C2CB" stroke-width="1.5" stroke-linecap="round" stroke-linejoin="round"/>
</svg>
