<svg width="34" height="34" viewBox="0 0 34 34" fill="none" xmlns="http://www.w3.org/2000/svg">
<path d="M15.4186 5.1626H4.98181C4.19095 5.1626 3.43249 5.47676 2.87327 6.03599C2.31404 6.59521 1.99988 7.35367 1.99988 8.14453V29.018C1.99988 29.8089 2.31404 30.5674 2.87327 31.1266C3.43249 31.6858 4.19095 32 4.98181 32H25.8553C26.6462 32 27.4047 31.6858 27.9639 31.1266C28.5231 30.5674 28.8373 29.8089 28.8373 29.018V18.5813" stroke="#B2C2CB" stroke-width="2.5" stroke-linecap="round" stroke-linejoin="round"/>
<path d="M26.6008 2.92637C27.194 2.33322 27.9984 2 28.8373 2C29.6761 2 30.4806 2.33322 31.0737 2.92637C31.6669 3.51951 32.0001 4.32398 32.0001 5.16282C32.0001 6.00165 31.6669 6.80612 31.0737 7.39926L16.9095 21.5634L10.9457 23.0544L12.4366 17.0905L26.6008 2.92637Z" stroke="#B2C2CB" stroke-width="2.5" stroke-linecap="round" stroke-linejoin="round"/>
</svg>
