<svg width="38" height="31" viewBox="0 0 38 31" fill="none" xmlns="http://www.w3.org/2000/svg">
<mask id="path-1-inside-1_3_138134" fill="white">
<path d="M14.4658 0.354492L13.4068 0.48195C13.4068 0.48195 8.65561 1.00127 5.18578 3.78771H5.1451L5.10171 3.82839C4.32341 4.54432 3.98442 5.42432 3.44883 6.7111C2.81748 8.25925 2.28001 9.84405 1.83934 11.4569C0.833239 15.0948 0.0169678 19.5016 0.0169678 23.5328L0.0169678 23.8718L0.186459 24.2108C1.44205 26.4142 3.6712 27.8175 5.73764 28.787C7.80273 29.7565 9.58849 30.2704 10.8224 30.3125L11.6278 30.3545L12.0509 29.6345L13.5343 27.0067C15.1071 27.3619 16.9187 27.6006 19 27.6006C21.0814 27.6006 22.8929 27.3619 24.4658 27.0067L25.9492 29.6345L26.3736 30.3545L27.1776 30.3125C28.4115 30.2704 30.1973 29.7565 32.2624 28.787C34.3288 27.8175 36.558 26.4142 37.8136 24.2108L37.9831 23.8718V23.5328C37.9831 19.5016 37.1668 15.0948 36.1607 11.4569C35.72 9.84405 35.1825 8.25925 34.5512 6.7111C34.0156 5.42297 33.6766 4.54432 32.8983 3.82975L32.8563 3.78636H32.8129C29.3458 1.00127 24.5932 0.48195 24.5932 0.48195L23.5342 0.354492L23.1519 1.32941C23.1519 1.32941 22.76 2.31924 22.5173 3.44873C21.3516 3.2879 20.1767 3.20275 19 3.19381C18.2746 3.19381 17.0204 3.24127 15.4827 3.44873C15.2387 2.31924 14.8468 1.32941 14.8468 1.32941L14.4658 0.354492ZM12.6014 3.44873C12.6597 3.63856 12.718 3.80263 12.7709 3.9572C11.0176 4.3911 9.14781 5.0528 7.43256 6.1172L8.87256 8.40602C12.3898 6.22297 17.442 5.90568 19 5.90568C20.5566 5.90568 25.6102 6.22297 29.1275 8.40602L30.5675 6.1172C28.8522 5.0528 26.9824 4.3911 25.2292 3.95585C25.282 3.80263 25.3404 3.63856 25.3987 3.44737C26.6637 3.70229 29.08 4.28534 31.0759 5.86364C31.0651 5.86907 31.5844 6.6528 32.0509 7.77008C32.5281 8.91992 33.057 10.4508 33.5342 12.1769C34.4509 15.4867 35.1709 19.5179 35.2292 23.0664C34.3749 24.3694 32.7926 25.545 31.118 26.3301C30.0678 26.8263 28.9567 27.182 27.8136 27.3877L27.1356 26.2447C27.5383 26.0955 27.9356 25.9328 28.28 25.7782C30.3668 24.8616 31.5004 23.8718 31.5004 23.8718L29.72 21.8379C29.72 21.8379 28.958 22.5375 27.1776 23.3213C25.4 24.105 22.6814 24.8887 19 24.8887C15.3187 24.8887 12.6014 24.105 10.8224 23.3213C9.04205 22.5375 8.28002 21.8379 8.28002 21.8379L6.49968 23.8718C6.49968 23.8718 7.63324 24.8616 9.72002 25.7782C10.0644 25.9328 10.4617 26.0969 10.8644 26.2447L10.1865 27.3891C9.04269 27.1826 7.93118 26.826 6.88069 26.3287C5.20747 25.545 3.62375 24.3694 2.77222 23.0664C2.82917 19.5179 3.54917 15.4867 4.46714 12.1769C4.87276 10.6797 5.36766 9.20812 5.94917 7.77008C6.41561 6.6528 6.93493 5.86907 6.92408 5.86364C8.92002 4.28534 11.3363 3.70229 12.6014 3.44873ZM14.2543 12.6853C13.2061 12.6853 12.2787 13.2833 11.7119 14.0413C11.1451 14.7992 10.8644 15.7308 10.8644 16.7531C10.8644 17.7755 11.1451 18.707 11.7119 19.465C12.2787 20.223 13.2061 20.8209 14.2543 20.8209C15.3024 20.8209 16.2298 20.223 16.7966 19.465C17.3634 18.707 17.6441 17.7755 17.6441 16.7531C17.6441 15.7308 17.3634 14.7992 16.7966 14.0413C16.2298 13.2833 15.3024 12.6853 14.2543 12.6853ZM23.7458 12.6853C22.6976 12.6853 21.7702 13.2833 21.2034 14.0413C20.6366 14.7992 20.3559 15.7308 20.3559 16.7531C20.3559 17.7755 20.6366 18.707 21.2034 19.465C21.7702 20.223 22.6976 20.8209 23.7458 20.8209C24.7939 20.8209 25.7214 20.223 26.2881 19.465C26.8549 18.707 27.1356 17.7755 27.1356 16.7531C27.1356 15.7308 26.8549 14.7992 26.2881 14.0413C25.7214 13.2833 24.7939 12.6853 23.7458 12.6853ZM14.2543 15.3972C14.3288 15.3972 14.4237 15.4243 14.5932 15.6521C14.7627 15.8786 14.9322 16.2758 14.9322 16.7531C14.9322 17.2304 14.7627 17.6277 14.5932 17.8555C14.4237 18.0819 14.3288 18.1091 14.2543 18.1091C14.1797 18.1091 14.0848 18.082 13.9153 17.8542C13.691 17.5311 13.5726 17.1464 13.5763 16.7531C13.5763 16.2758 13.7458 15.8786 13.9153 15.6508C14.0848 15.4243 14.1797 15.3972 14.2543 15.3972ZM23.7458 15.3972C23.8204 15.3972 23.9153 15.4243 24.0848 15.6521C24.2542 15.8786 24.4237 16.2758 24.4237 16.7531C24.4237 17.2304 24.2542 17.6277 24.0848 17.8555C23.9153 18.0819 23.8204 18.1091 23.7458 18.1091C23.6712 18.1091 23.5763 18.082 23.4068 17.8542C23.1826 17.5311 23.0641 17.1464 23.0678 16.7531C23.0678 16.2758 23.2373 15.8786 23.4068 15.6508C23.5763 15.4243 23.6712 15.3972 23.7458 15.3972Z"/>
</mask>
<path d="M14.4658 0.354492L13.4068 0.48195C13.4068 0.48195 8.65561 1.00127 5.18578 3.78771H5.1451L5.10171 3.82839C4.32341 4.54432 3.98442 5.42432 3.44883 6.7111C2.81748 8.25925 2.28001 9.84405 1.83934 11.4569C0.833239 15.0948 0.0169678 19.5016 0.0169678 23.5328L0.0169678 23.8718L0.186459 24.2108C1.44205 26.4142 3.6712 27.8175 5.73764 28.787C7.80273 29.7565 9.58849 30.2704 10.8224 30.3125L11.6278 30.3545L12.0509 29.6345L13.5343 27.0067C15.1071 27.3619 16.9187 27.6006 19 27.6006C21.0814 27.6006 22.8929 27.3619 24.4658 27.0067L25.9492 29.6345L26.3736 30.3545L27.1776 30.3125C28.4115 30.2704 30.1973 29.7565 32.2624 28.787C34.3288 27.8175 36.558 26.4142 37.8136 24.2108L37.9831 23.8718V23.5328C37.9831 19.5016 37.1668 15.0948 36.1607 11.4569C35.72 9.84405 35.1825 8.25925 34.5512 6.7111C34.0156 5.42297 33.6766 4.54432 32.8983 3.82975L32.8563 3.78636H32.8129C29.3458 1.00127 24.5932 0.48195 24.5932 0.48195L23.5342 0.354492L23.1519 1.32941C23.1519 1.32941 22.76 2.31924 22.5173 3.44873C21.3516 3.2879 20.1767 3.20275 19 3.19381C18.2746 3.19381 17.0204 3.24127 15.4827 3.44873C15.2387 2.31924 14.8468 1.32941 14.8468 1.32941L14.4658 0.354492ZM12.6014 3.44873C12.6597 3.63856 12.718 3.80263 12.7709 3.9572C11.0176 4.3911 9.14781 5.0528 7.43256 6.1172L8.87256 8.40602C12.3898 6.22297 17.442 5.90568 19 5.90568C20.5566 5.90568 25.6102 6.22297 29.1275 8.40602L30.5675 6.1172C28.8522 5.0528 26.9824 4.3911 25.2292 3.95585C25.282 3.80263 25.3404 3.63856 25.3987 3.44737C26.6637 3.70229 29.08 4.28534 31.0759 5.86364C31.0651 5.86907 31.5844 6.6528 32.0509 7.77008C32.5281 8.91992 33.057 10.4508 33.5342 12.1769C34.4509 15.4867 35.1709 19.5179 35.2292 23.0664C34.3749 24.3694 32.7926 25.545 31.118 26.3301C30.0678 26.8263 28.9567 27.182 27.8136 27.3877L27.1356 26.2447C27.5383 26.0955 27.9356 25.9328 28.28 25.7782C30.3668 24.8616 31.5004 23.8718 31.5004 23.8718L29.72 21.8379C29.72 21.8379 28.958 22.5375 27.1776 23.3213C25.4 24.105 22.6814 24.8887 19 24.8887C15.3187 24.8887 12.6014 24.105 10.8224 23.3213C9.04205 22.5375 8.28002 21.8379 8.28002 21.8379L6.49968 23.8718C6.49968 23.8718 7.63324 24.8616 9.72002 25.7782C10.0644 25.9328 10.4617 26.0969 10.8644 26.2447L10.1865 27.3891C9.04269 27.1826 7.93118 26.826 6.88069 26.3287C5.20747 25.545 3.62375 24.3694 2.77222 23.0664C2.82917 19.5179 3.54917 15.4867 4.46714 12.1769C4.87276 10.6797 5.36766 9.20812 5.94917 7.77008C6.41561 6.6528 6.93493 5.86907 6.92408 5.86364C8.92002 4.28534 11.3363 3.70229 12.6014 3.44873ZM14.2543 12.6853C13.2061 12.6853 12.2787 13.2833 11.7119 14.0413C11.1451 14.7992 10.8644 15.7308 10.8644 16.7531C10.8644 17.7755 11.1451 18.707 11.7119 19.465C12.2787 20.223 13.2061 20.8209 14.2543 20.8209C15.3024 20.8209 16.2298 20.223 16.7966 19.465C17.3634 18.707 17.6441 17.7755 17.6441 16.7531C17.6441 15.7308 17.3634 14.7992 16.7966 14.0413C16.2298 13.2833 15.3024 12.6853 14.2543 12.6853ZM23.7458 12.6853C22.6976 12.6853 21.7702 13.2833 21.2034 14.0413C20.6366 14.7992 20.3559 15.7308 20.3559 16.7531C20.3559 17.7755 20.6366 18.707 21.2034 19.465C21.7702 20.223 22.6976 20.8209 23.7458 20.8209C24.7939 20.8209 25.7214 20.223 26.2881 19.465C26.8549 18.707 27.1356 17.7755 27.1356 16.7531C27.1356 15.7308 26.8549 14.7992 26.2881 14.0413C25.7214 13.2833 24.7939 12.6853 23.7458 12.6853ZM14.2543 15.3972C14.3288 15.3972 14.4237 15.4243 14.5932 15.6521C14.7627 15.8786 14.9322 16.2758 14.9322 16.7531C14.9322 17.2304 14.7627 17.6277 14.5932 17.8555C14.4237 18.0819 14.3288 18.1091 14.2543 18.1091C14.1797 18.1091 14.0848 18.082 13.9153 17.8542C13.691 17.5311 13.5726 17.1464 13.5763 16.7531C13.5763 16.2758 13.7458 15.8786 13.9153 15.6508C14.0848 15.4243 14.1797 15.3972 14.2543 15.3972ZM23.7458 15.3972C23.8204 15.3972 23.9153 15.4243 24.0848 15.6521C24.2542 15.8786 24.4237 16.2758 24.4237 16.7531C24.4237 17.2304 24.2542 17.6277 24.0848 17.8555C23.9153 18.0819 23.8204 18.1091 23.7458 18.1091C23.6712 18.1091 23.5763 18.082 23.4068 17.8542C23.1826 17.5311 23.0641 17.1464 23.0678 16.7531C23.0678 16.2758 23.2373 15.8786 23.4068 15.6508C23.5763 15.4243 23.6712 15.3972 23.7458 15.3972Z" fill="#B2C2CB" stroke="#2E333A" stroke-width="0.8" mask="url(#path-1-inside-1_3_138134)"/>
</svg>
