<svg width="38" height="31" viewBox="0 0 38 31" fill="none" xmlns="http://www.w3.org/2000/svg">
<path d="M16.7731 7.93904V8.25817L17.0909 8.28756C19.8024 8.53827 24.8855 9.38732 29.2819 12.2698C33.6567 15.1382 37.3731 20.0319 37.3731 28.4454H37.373L37.3732 28.4533C37.3805 28.7777 37.284 29.0959 37.0977 29.3616C36.9118 29.6269 36.6461 29.8259 36.3392 29.9298C36.0376 30.0279 35.7129 30.0294 35.4104 29.934C35.1073 29.8384 34.8417 29.6504 34.6508 29.3963L34.643 29.3859L34.6344 29.3761C32.653 27.1104 30.2023 25.303 27.4524 24.0793C24.7033 22.856 21.721 22.2455 18.7124 22.29H17.1231H16.7731V22.64V28.4448C16.7717 28.7439 16.6823 29.0359 16.516 29.2844C16.3495 29.5332 16.1135 29.7274 15.8372 29.8428C15.561 29.9581 15.2569 29.9895 14.963 29.933C14.6696 29.8766 14.3993 29.7352 14.1857 29.5263C14.1853 29.5259 14.1849 29.5255 14.1845 29.5251L1.07787 16.4185L1.07685 16.4175C0.934126 16.2759 0.820844 16.1075 0.743537 15.9219C0.66623 15.7364 0.626428 15.5373 0.626428 15.3363C0.626428 15.1353 0.66623 14.9363 0.743537 14.7507C0.820844 14.5652 0.934126 14.3967 1.07685 14.2552L1.07787 14.2542L14.186 1.14608C14.1861 1.14592 14.1863 1.14575 14.1864 1.14559C14.4698 0.864754 14.8521 0.706365 15.2511 0.704492C15.6547 0.704687 16.0417 0.865096 16.3271 1.15049C16.6127 1.43606 16.7731 1.82337 16.7731 2.22722V7.93904ZM18.7138 19.2071L18.7166 19.207C23.9096 19.1817 28.9722 20.8325 33.152 23.9142L33.9357 24.4921L33.6992 23.5475C32.2024 17.5701 27.9932 14.4893 23.9766 12.9108C19.9682 11.3355 16.1207 11.2409 15.2504 11.2409C14.8465 11.2409 14.4592 11.0804 14.1737 10.7949C13.8881 10.5093 13.7277 10.122 13.7277 9.71813V6.7405V5.89422L13.1299 6.49328L4.55281 15.0891L4.30613 15.3363L4.55281 15.5835L13.1299 24.1794L13.7277 24.7784V23.9321V20.9545L13.7277 20.954C13.7272 20.5894 13.8575 20.2367 14.0951 19.9601C14.3319 19.6842 14.6597 19.5022 15.0191 19.447C16.2438 19.2833 17.4782 19.2032 18.7138 19.2071Z" fill="#B2C2CB" stroke="#2E333A" stroke-width="0.7"/>
</svg>
