<svg width="32" height="31" viewBox="0 0 32 31" fill="none" xmlns="http://www.w3.org/2000/svg">
<path d="M26.4682 5.81995C26.4682 5.87259 26.509 5.91621 26.5615 5.91972C27.8306 6.00452 29.0201 6.56849 29.8889 7.49741C30.7577 8.42633 31.241 9.65075 31.2409 10.9227V25.2409C31.2409 26.5706 30.7127 27.8458 29.7725 28.786C28.8322 29.7263 27.557 30.2545 26.2273 30.2545H5.77821C4.44851 30.2545 3.17327 29.7263 2.23303 28.786C1.2928 27.8458 0.764575 26.5706 0.764575 25.2409V10.9227C0.764575 10.9112 0.762655 10.9003 0.75912 10.89V4.49808C0.770436 4.47982 0.775662 4.45824 0.773725 4.43652C0.763886 4.32615 0.759013 4.2154 0.75912 4.10459L0.659119 4.10449H0.75912C0.75912 3.13645 1.14367 2.20806 1.82818 1.52355C2.51269 0.839045 3.44108 0.454492 4.40912 0.454492H22.8182C23.7862 0.454492 24.7146 0.839045 25.3991 1.52355C26.0837 2.20806 26.4682 3.13645 26.4682 4.10449V5.81995ZM2.71003 7.75449C2.6548 7.75449 2.61003 7.79926 2.61003 7.85449V25.2409C2.61003 26.0811 2.94382 26.8869 3.53797 27.4811C4.13212 28.0752 4.93796 28.409 5.77821 28.409H26.2273C27.0676 28.409 27.8734 28.0752 28.4675 27.4811C29.0617 26.8869 29.3955 26.0811 29.3955 25.2409V10.9227C29.3955 10.0824 29.0617 9.27658 28.4675 8.68243C27.8734 8.08828 27.0676 7.75449 26.2273 7.75449H2.71003ZM24.5228 5.90904C24.578 5.90904 24.6228 5.86427 24.6228 5.80904V4.10449C24.6228 3.10835 23.8143 2.29995 22.8182 2.29995H4.40912C3.93052 2.29995 3.47153 2.49007 3.13311 2.82849C2.7947 3.1669 2.60457 3.6259 2.60457 4.10449C2.60457 4.58309 2.7947 5.04208 3.13311 5.3805C3.47153 5.71892 3.93052 5.90904 4.40912 5.90904H24.5228ZM21.4839 18.452C21.657 18.279 21.8917 18.1818 22.1364 18.1818H25.5455C25.7902 18.1818 26.0249 18.279 26.1979 18.452C26.371 18.6251 26.4682 18.8598 26.4682 19.1045C26.4682 19.3492 26.371 19.5839 26.1979 19.757C26.0249 19.93 25.7902 20.0272 25.5455 20.0272H22.1364C21.8917 20.0272 21.657 19.93 21.4839 19.757C21.3109 19.5839 21.2137 19.3492 21.2137 19.1045C21.2137 18.8598 21.3109 18.6251 21.4839 18.452Z" fill="#B2C2CB" stroke="#2E333A" stroke-width="0.2" stroke-linejoin="round"/>
</svg>
