<svg width="26" height="20" viewBox="0 0 26 20" fill="none" xmlns="http://www.w3.org/2000/svg">
<mask id="path-1-inside-1_3_141276" fill="white">
<path d="M9.9772 0L9.27122 0.0849716C9.27122 0.0849716 6.10376 0.431186 3.79054 2.28881H3.76342L3.73449 2.31593C3.21563 2.79322 2.98964 3.37989 2.63257 4.23774C2.21168 5.26984 1.85336 6.32637 1.55958 7.40158C0.888846 9.82689 0.344666 12.7647 0.344666 15.4522V15.6782L0.45766 15.9042C1.29472 17.3731 2.78082 18.3087 4.15845 18.955C5.53517 19.6014 6.72568 19.944 7.54828 19.972L8.08523 20L8.36726 19.52L9.35619 17.7681C10.4048 18.005 11.6125 18.1641 13 18.1641C14.3876 18.1641 15.5953 18.005 16.6439 17.7681L17.6328 19.52L17.9157 20L18.4518 19.972C19.2744 19.944 20.4649 19.6014 21.8416 18.955C23.2192 18.3087 24.7053 17.3731 25.5424 15.9042L25.6554 15.6782V15.4522C25.6554 12.7647 25.1112 9.82689 24.4405 7.40158C24.1467 6.32637 23.7884 5.26984 23.3675 4.23774C23.0104 3.37898 22.7844 2.79322 22.2656 2.31684L22.2375 2.28791H22.2086C19.8972 0.431186 16.7288 0.0849716 16.7288 0.0849716L16.0229 0L15.7679 0.649943C15.7679 0.649943 15.5067 1.30983 15.3449 2.06282C14.5678 1.9556 13.7845 1.89884 13 1.89288C12.5164 1.89288 11.6803 1.92452 10.6552 2.06282C10.4925 1.30983 10.2312 0.649943 10.2312 0.649943L9.9772 0ZM8.73427 2.06282C8.77314 2.18938 8.81201 2.29876 8.84726 2.40181C7.67845 2.69107 6.4319 3.1322 5.28839 3.84181L6.24839 5.36768C8.59325 3.91232 11.9614 3.70079 13 3.70079C14.0378 3.70079 17.4068 3.91232 19.7517 5.36768L20.7117 3.84181C19.5682 3.1322 18.3216 2.69107 17.1528 2.4009C17.1881 2.29876 17.2269 2.18938 17.2658 2.06192C18.1092 2.23186 19.72 2.62056 21.0506 3.67277C21.0434 3.67638 21.3896 4.19887 21.7006 4.94373C22.0188 5.71028 22.3713 6.73085 22.6895 7.88158C23.3006 10.0881 23.7806 12.7756 23.8195 15.1412C23.25 16.0099 22.1951 16.7937 21.0787 17.3171C20.3785 17.6479 19.6378 17.885 18.8757 18.0221L18.4238 17.2601C18.6922 17.1607 18.9571 17.0522 19.1867 16.9492C20.5779 16.3381 21.3336 15.6782 21.3336 15.6782L20.1467 14.3223C20.1467 14.3223 19.6387 14.7887 18.4518 15.3112C17.2667 15.8337 15.4543 16.3562 13 16.3562C10.5458 16.3562 8.73427 15.8337 7.54828 15.3112C6.36139 14.7887 5.85336 14.3223 5.85336 14.3223L4.66647 15.6782C4.66647 15.6782 5.42218 16.3381 6.81336 16.9492C7.04297 17.0522 7.30783 17.1616 7.5763 17.2601L7.12432 18.023C6.36182 17.8854 5.62081 17.6477 4.92048 17.3162C3.805 16.7937 2.74918 16.0099 2.1815 15.1412C2.21947 12.7756 2.69947 10.0881 3.31144 7.88158C3.58186 6.88346 3.91179 5.90242 4.29947 4.94373C4.61043 4.19887 4.95664 3.67638 4.94941 3.67277C6.28003 2.62056 7.89088 2.23186 8.73427 2.06282ZM9.83619 8.22056C9.13743 8.22056 8.51913 8.61921 8.14127 9.12452C7.76342 9.62983 7.5763 10.2508 7.5763 10.9324C7.5763 11.614 7.76342 12.235 8.14127 12.7403C8.51913 13.2456 9.13743 13.6443 9.83619 13.6443C10.5349 13.6443 11.1532 13.2456 11.5311 12.7403C11.909 12.235 12.0961 11.614 12.0961 10.9324C12.0961 10.2508 11.909 9.62983 11.5311 9.12452C11.1532 8.61921 10.5349 8.22056 9.83619 8.22056ZM16.1639 8.22056C15.4651 8.22056 14.8468 8.61921 14.469 9.12452C14.0911 9.62983 13.904 10.2508 13.904 10.9324C13.904 11.614 14.0911 12.235 14.469 12.7403C14.8468 13.2456 15.4651 13.6443 16.1639 13.6443C16.8626 13.6443 17.4809 13.2456 17.8588 12.7403C18.2366 12.235 18.4238 11.614 18.4238 10.9324C18.4238 10.2508 18.2366 9.62983 17.8588 9.12452C17.4809 8.61921 16.8626 8.22056 16.1639 8.22056ZM9.83619 10.0285C9.88591 10.0285 9.94918 10.0466 10.0622 10.1984C10.1752 10.3494 10.2882 10.6142 10.2882 10.9324C10.2882 11.2506 10.1752 11.5155 10.0622 11.6673C9.94918 11.8183 9.88591 11.8364 9.83619 11.8364C9.78647 11.8364 9.72319 11.8183 9.6102 11.6664C9.46071 11.4511 9.38175 11.1946 9.38421 10.9324C9.38421 10.6142 9.4972 10.3494 9.6102 10.1975C9.72319 10.0466 9.78647 10.0285 9.83619 10.0285ZM16.1639 10.0285C16.2136 10.0285 16.2769 10.0466 16.3899 10.1984C16.5029 10.3494 16.6158 10.6142 16.6158 10.9324C16.6158 11.2506 16.5029 11.5155 16.3899 11.6673C16.2769 11.8183 16.2136 11.8364 16.1639 11.8364C16.1142 11.8364 16.0509 11.8183 15.9379 11.6664C15.7884 11.4511 15.7094 11.1946 15.7119 10.9324C15.7119 10.6142 15.8249 10.3494 15.9379 10.1975C16.0509 10.0466 16.1142 10.0285 16.1639 10.0285Z"/>
</mask>
<path d="M9.9772 0L9.27122 0.0849716C9.27122 0.0849716 6.10376 0.431186 3.79054 2.28881H3.76342L3.73449 2.31593C3.21563 2.79322 2.98964 3.37989 2.63257 4.23774C2.21168 5.26984 1.85336 6.32637 1.55958 7.40158C0.888846 9.82689 0.344666 12.7647 0.344666 15.4522V15.6782L0.45766 15.9042C1.29472 17.3731 2.78082 18.3087 4.15845 18.955C5.53517 19.6014 6.72568 19.944 7.54828 19.972L8.08523 20L8.36726 19.52L9.35619 17.7681C10.4048 18.005 11.6125 18.1641 13 18.1641C14.3876 18.1641 15.5953 18.005 16.6439 17.7681L17.6328 19.52L17.9157 20L18.4518 19.972C19.2744 19.944 20.4649 19.6014 21.8416 18.955C23.2192 18.3087 24.7053 17.3731 25.5424 15.9042L25.6554 15.6782V15.4522C25.6554 12.7647 25.1112 9.82689 24.4405 7.40158C24.1467 6.32637 23.7884 5.26984 23.3675 4.23774C23.0104 3.37898 22.7844 2.79322 22.2656 2.31684L22.2375 2.28791H22.2086C19.8972 0.431186 16.7288 0.0849716 16.7288 0.0849716L16.0229 0L15.7679 0.649943C15.7679 0.649943 15.5067 1.30983 15.3449 2.06282C14.5678 1.9556 13.7845 1.89884 13 1.89288C12.5164 1.89288 11.6803 1.92452 10.6552 2.06282C10.4925 1.30983 10.2312 0.649943 10.2312 0.649943L9.9772 0ZM8.73427 2.06282C8.77314 2.18938 8.81201 2.29876 8.84726 2.40181C7.67845 2.69107 6.4319 3.1322 5.28839 3.84181L6.24839 5.36768C8.59325 3.91232 11.9614 3.70079 13 3.70079C14.0378 3.70079 17.4068 3.91232 19.7517 5.36768L20.7117 3.84181C19.5682 3.1322 18.3216 2.69107 17.1528 2.4009C17.1881 2.29876 17.2269 2.18938 17.2658 2.06192C18.1092 2.23186 19.72 2.62056 21.0506 3.67277C21.0434 3.67638 21.3896 4.19887 21.7006 4.94373C22.0188 5.71028 22.3713 6.73085 22.6895 7.88158C23.3006 10.0881 23.7806 12.7756 23.8195 15.1412C23.25 16.0099 22.1951 16.7937 21.0787 17.3171C20.3785 17.6479 19.6378 17.885 18.8757 18.0221L18.4238 17.2601C18.6922 17.1607 18.9571 17.0522 19.1867 16.9492C20.5779 16.3381 21.3336 15.6782 21.3336 15.6782L20.1467 14.3223C20.1467 14.3223 19.6387 14.7887 18.4518 15.3112C17.2667 15.8337 15.4543 16.3562 13 16.3562C10.5458 16.3562 8.73427 15.8337 7.54828 15.3112C6.36139 14.7887 5.85336 14.3223 5.85336 14.3223L4.66647 15.6782C4.66647 15.6782 5.42218 16.3381 6.81336 16.9492C7.04297 17.0522 7.30783 17.1616 7.5763 17.2601L7.12432 18.023C6.36182 17.8854 5.62081 17.6477 4.92048 17.3162C3.805 16.7937 2.74918 16.0099 2.1815 15.1412C2.21947 12.7756 2.69947 10.0881 3.31144 7.88158C3.58186 6.88346 3.91179 5.90242 4.29947 4.94373C4.61043 4.19887 4.95664 3.67638 4.94941 3.67277C6.28003 2.62056 7.89088 2.23186 8.73427 2.06282ZM9.83619 8.22056C9.13743 8.22056 8.51913 8.61921 8.14127 9.12452C7.76342 9.62983 7.5763 10.2508 7.5763 10.9324C7.5763 11.614 7.76342 12.235 8.14127 12.7403C8.51913 13.2456 9.13743 13.6443 9.83619 13.6443C10.5349 13.6443 11.1532 13.2456 11.5311 12.7403C11.909 12.235 12.0961 11.614 12.0961 10.9324C12.0961 10.2508 11.909 9.62983 11.5311 9.12452C11.1532 8.61921 10.5349 8.22056 9.83619 8.22056ZM16.1639 8.22056C15.4651 8.22056 14.8468 8.61921 14.469 9.12452C14.0911 9.62983 13.904 10.2508 13.904 10.9324C13.904 11.614 14.0911 12.235 14.469 12.7403C14.8468 13.2456 15.4651 13.6443 16.1639 13.6443C16.8626 13.6443 17.4809 13.2456 17.8588 12.7403C18.2366 12.235 18.4238 11.614 18.4238 10.9324C18.4238 10.2508 18.2366 9.62983 17.8588 9.12452C17.4809 8.61921 16.8626 8.22056 16.1639 8.22056ZM9.83619 10.0285C9.88591 10.0285 9.94918 10.0466 10.0622 10.1984C10.1752 10.3494 10.2882 10.6142 10.2882 10.9324C10.2882 11.2506 10.1752 11.5155 10.0622 11.6673C9.94918 11.8183 9.88591 11.8364 9.83619 11.8364C9.78647 11.8364 9.72319 11.8183 9.6102 11.6664C9.46071 11.4511 9.38175 11.1946 9.38421 10.9324C9.38421 10.6142 9.4972 10.3494 9.6102 10.1975C9.72319 10.0466 9.78647 10.0285 9.83619 10.0285ZM16.1639 10.0285C16.2136 10.0285 16.2769 10.0466 16.3899 10.1984C16.5029 10.3494 16.6158 10.6142 16.6158 10.9324C16.6158 11.2506 16.5029 11.5155 16.3899 11.6673C16.2769 11.8183 16.2136 11.8364 16.1639 11.8364C16.1142 11.8364 16.0509 11.8183 15.9379 11.6664C15.7884 11.4511 15.7094 11.1946 15.7119 10.9324C15.7119 10.6142 15.8249 10.3494 15.9379 10.1975C16.0509 10.0466 16.1142 10.0285 16.1639 10.0285Z" fill="#B2C2CB" stroke="#2E333A" stroke-width="0.6" mask="url(#path-1-inside-1_3_141276)"/>
</svg>
