<svg width="30" height="31" viewBox="0 0 30 31" fill="none" xmlns="http://www.w3.org/2000/svg">
<path d="M14.4273 4.81841L14.2145 4.46999L14.0009 4.81792L10.951 9.78588L10.7172 10.1667H11.164H17.2482H17.6938L17.4615 9.78637L14.4273 4.81841ZM15.3421 1.23719L15.5474 1.11173L15.3421 1.23719L21.1856 10.7994C21.724 11.6804 21.09 12.811 20.0574 12.811H8.37041C7.33791 12.811 6.70385 11.6804 7.24224 10.7994L13.0858 1.23719L12.8732 1.10731L13.0858 1.23719C13.6013 0.393594 14.8266 0.393594 15.3421 1.23719ZM3.20898 19.8856H2.95898V20.1356V26.4241V26.6741H3.20898H9.49753H9.74753V26.4241V20.1356V19.8856H9.49753H3.20898ZM16.0361 23.2799C16.0361 19.5033 19.0842 16.4552 22.8607 16.4552C26.6373 16.4552 29.6854 19.5033 29.6854 23.2799C29.6854 27.0564 26.6373 30.1045 22.8607 30.1045C19.0842 30.1045 16.0361 27.0564 16.0361 23.2799ZM18.6804 23.2799C18.6804 25.5875 20.5531 27.4602 22.8607 27.4602C25.1683 27.4602 27.0411 25.5875 27.0411 23.2799C27.0411 20.9722 25.1683 19.0995 22.8607 19.0995C20.5531 19.0995 18.6804 20.9722 18.6804 23.2799ZM3.20898 29.3184C1.61051 29.3184 0.314697 28.0227 0.314697 26.4241L0.314697 20.1356C0.314697 18.5371 1.61051 17.2413 3.20898 17.2413H9.49753C11.096 17.2413 12.3918 18.5371 12.3918 20.1356V26.4241C12.3918 28.0227 11.096 29.3184 9.49753 29.3184H3.20898Z" fill="#B2C2CB" stroke="#2E333A" stroke-width="0.5"/>
</svg>
