<svg width="22" height="18" viewBox="0 0 22 18" fill="none" xmlns="http://www.w3.org/2000/svg">
<path fill-rule="evenodd" clip-rule="evenodd" d="M10.0999 5.2422C10.0999 2.72286 12.1422 0.680542 14.6615 0.680542C16.1407 0.680542 17.3209 1.37931 18.1116 2.39463C18.9479 2.22321 19.7496 1.91307 20.4836 1.47704C20.1994 2.36137 19.6044 3.11281 18.8089 3.5923L18.8118 3.59668C19.567 3.50543 20.3045 3.30238 21 2.99419L20.9985 2.99711C20.5069 3.7338 19.8899 4.38297 19.178 4.91251C19.2159 5.17072 19.2363 5.42892 19.2363 5.68567C19.2363 11.0643 15.1386 17.3196 7.60242 17.3196C5.38024 17.3215 3.20452 16.6834 1.33543 15.4815C1.24743 15.425 1.17261 15.3503 1.11603 15.2623C1.05944 15.1744 1.02243 15.0754 1.00749 14.9719C0.992544 14.8684 1.00003 14.7629 1.02942 14.6626C1.05882 14.5622 1.10945 14.4694 1.17788 14.3903C1.24295 14.2821 1.33783 14.195 1.45116 14.1394C1.56448 14.0837 1.69144 14.062 1.81683 14.0767C3.15309 14.2342 4.48643 14.0708 5.66368 13.5573C5.08301 13.3008 4.56318 12.9243 4.13829 12.4527C3.7134 11.981 3.39306 11.4248 3.19831 10.8206C3.1623 10.7083 3.15725 10.5882 3.18369 10.4732C3.21013 10.3582 3.26709 10.2525 3.34857 10.1671C2.86915 9.74635 2.48513 9.22806 2.22223 8.6469C1.95932 8.06575 1.82359 7.43513 1.82412 6.79727V6.74768C1.82409 6.59506 1.87723 6.44721 1.9744 6.32953C2.07158 6.21185 2.20672 6.13171 2.35658 6.10289C2.02585 5.46463 1.85372 4.75609 1.85476 4.03723C1.85476 3.35451 1.85914 2.49383 2.33908 1.71775C2.39036 1.63553 2.4592 1.56568 2.54067 1.51322C2.62213 1.46076 2.7142 1.42698 2.81027 1.41432C2.94957 1.37038 3.09884 1.36928 3.23877 1.41116C3.3787 1.45303 3.50284 1.53595 3.5951 1.64918C5.22125 3.64962 7.54711 4.957 10.1013 5.30638V5.2422H10.0999ZM7.60242 15.8608C5.88875 15.85 3.60551 15.3334 3.5951 15.2623C3.58469 15.1913 6.68189 15.2623 8.03184 13.4683C8.12512 13.3443 8.06842 13.1996 8.02525 13.0711C7.98208 12.9425 7.90017 12.8305 7.79076 12.7504C7.68135 12.6703 7.54981 12.626 7.41423 12.6237C6.92585 12.6149 6.44609 12.4934 6.01238 12.2687C5.57867 12.044 5.20272 11.7222 4.91385 11.3283C5.19103 11.3064 5.46236 11.2583 5.72495 11.1882C5.86808 11.15 5.99407 11.0644 6.08241 10.9455C6.17075 10.8265 6.21626 10.6812 6.21152 10.5331C6.20679 10.385 6.1521 10.2429 6.05634 10.1298C5.96058 10.0167 5.82939 9.93939 5.6841 9.91034C5.12911 9.79791 4.61421 9.53932 4.1926 9.1613C3.77098 8.78329 3.45795 8.29955 3.28584 7.76008C3.5776 7.8301 3.88249 7.87241 4.19467 7.88262C4.33733 7.88742 4.47767 7.84559 4.59442 7.76346C4.71117 7.68134 4.79798 7.5634 4.84168 7.42751C4.88538 7.29162 4.8836 7.14519 4.83661 7.01041C4.78961 6.87562 4.69996 6.75983 4.58125 6.68057C4.14595 6.39057 3.78901 5.99754 3.54215 5.5364C3.2953 5.07526 3.16616 4.56029 3.16622 4.03723C3.16622 3.79215 3.17059 3.57479 3.18518 3.3764C5.22643 5.45954 7.97763 6.69711 10.8905 6.8425C11.003 6.84822 11.1153 6.82781 11.2186 6.78288C11.3219 6.73794 11.4133 6.6697 11.4858 6.5835C11.5583 6.49731 11.6099 6.39549 11.6364 6.28604C11.663 6.17658 11.6638 6.06247 11.6389 5.95263C11.5318 5.49712 11.529 5.02328 11.6309 4.56657C11.7328 4.10986 11.9367 3.68211 12.2273 3.31534C12.5179 2.94856 12.8876 2.65226 13.3089 2.44861C13.7302 2.24495 14.1921 2.13923 14.6601 2.13934C16.4602 2.13934 17.7761 3.80674 17.7761 5.68713C17.7761 10.437 13.3089 15.8966 7.60242 15.8608Z" fill="#B2C2CB"/>
<path fill-rule="evenodd" clip-rule="evenodd" d="M10.0999 5.2422C10.0999 2.72286 12.1422 0.680542 14.6615 0.680542C16.1407 0.680542 17.3209 1.37931 18.1116 2.39463C18.9479 2.22321 19.7496 1.91307 20.4836 1.47704C20.1994 2.36137 19.6044 3.11281 18.8089 3.5923L18.8118 3.59668C19.567 3.50543 20.3045 3.30238 21 2.99419L20.9985 2.99711C20.5069 3.7338 19.8899 4.38297 19.178 4.91251C19.2159 5.17072 19.2363 5.42892 19.2363 5.68567C19.2363 11.0643 15.1386 17.3196 7.60242 17.3196C5.38024 17.3215 3.20452 16.6834 1.33543 15.4815C1.24743 15.425 1.17261 15.3503 1.11603 15.2623C1.05944 15.1744 1.02243 15.0754 1.00749 14.9719C0.992544 14.8684 1.00003 14.7629 1.02942 14.6626C1.05882 14.5622 1.10945 14.4694 1.17788 14.3903C1.24295 14.2821 1.33783 14.195 1.45116 14.1394C1.56448 14.0837 1.69144 14.062 1.81683 14.0767C3.15309 14.2342 4.48643 14.0708 5.66368 13.5573C5.08301 13.3008 4.56318 12.9243 4.13829 12.4527C3.7134 11.981 3.39306 11.4248 3.19831 10.8206C3.1623 10.7083 3.15725 10.5882 3.18369 10.4732C3.21013 10.3582 3.26709 10.2525 3.34857 10.1671C2.86915 9.74635 2.48513 9.22806 2.22223 8.6469C1.95932 8.06575 1.82359 7.43513 1.82412 6.79727V6.74768C1.82409 6.59506 1.87723 6.44721 1.9744 6.32953C2.07158 6.21185 2.20672 6.13171 2.35658 6.10289C2.02585 5.46463 1.85372 4.75609 1.85476 4.03723C1.85476 3.35451 1.85914 2.49383 2.33908 1.71775C2.39036 1.63553 2.4592 1.56568 2.54067 1.51322C2.62213 1.46076 2.7142 1.42698 2.81027 1.41432C2.94957 1.37038 3.09884 1.36928 3.23877 1.41116C3.3787 1.45303 3.50284 1.53595 3.5951 1.64918C5.22125 3.64962 7.54711 4.957 10.1013 5.30638V5.2422H10.0999ZM7.60242 15.8608C5.88875 15.85 3.60551 15.3334 3.5951 15.2623C3.58469 15.1913 6.68189 15.2623 8.03184 13.4683C8.12512 13.3443 8.06842 13.1996 8.02525 13.0711C7.98208 12.9425 7.90017 12.8305 7.79076 12.7504C7.68135 12.6703 7.54981 12.626 7.41423 12.6237C6.92585 12.6149 6.44609 12.4934 6.01238 12.2687C5.57867 12.044 5.20272 11.7222 4.91385 11.3283C5.19103 11.3064 5.46236 11.2583 5.72495 11.1882C5.86808 11.15 5.99407 11.0644 6.08241 10.9455C6.17075 10.8265 6.21626 10.6812 6.21152 10.5331C6.20679 10.385 6.1521 10.2429 6.05634 10.1298C5.96058 10.0167 5.82939 9.93939 5.6841 9.91034C5.12911 9.79791 4.61421 9.53932 4.1926 9.1613C3.77098 8.78329 3.45795 8.29955 3.28584 7.76008C3.5776 7.8301 3.88249 7.87241 4.19467 7.88262C4.33733 7.88742 4.47767 7.84559 4.59442 7.76346C4.71117 7.68134 4.79798 7.5634 4.84168 7.42751C4.88538 7.29162 4.8836 7.14519 4.83661 7.01041C4.78961 6.87562 4.69996 6.75983 4.58125 6.68057C4.14595 6.39057 3.78901 5.99754 3.54215 5.5364C3.2953 5.07526 3.16616 4.56029 3.16622 4.03723C3.16622 3.79215 3.17059 3.57479 3.18518 3.3764C5.22643 5.45954 7.97763 6.69711 10.8905 6.8425C11.003 6.84822 11.1153 6.82781 11.2186 6.78288C11.3219 6.73794 11.4133 6.6697 11.4858 6.5835C11.5583 6.49731 11.6099 6.39549 11.6364 6.28604C11.663 6.17658 11.6638 6.06247 11.6389 5.95263C11.5318 5.49712 11.529 5.02328 11.6309 4.56657C11.7328 4.10986 11.9367 3.68211 12.2273 3.31534C12.5179 2.94856 12.8876 2.65226 13.3089 2.44861C13.7302 2.24495 14.1921 2.13923 14.6601 2.13934C16.4602 2.13934 17.7761 3.80674 17.7761 5.68713C17.7761 10.437 13.3089 15.8966 7.60242 15.8608Z" stroke="#2E333A" stroke-width="0.4"/>
</svg>
