<svg width="20" height="20" viewBox="0 0 20 20" fill="none" xmlns="http://www.w3.org/2000/svg">
<mask id="path-1-inside-1_2_17146" fill="white">
<path d="M11.8208 20H8.1808C7.95273 20 7.7315 19.9221 7.5538 19.7792C7.3761 19.6362 7.2526 19.4368 7.2038 19.214L6.7968 17.33C6.25386 17.0921 5.73903 16.7946 5.2618 16.443L3.4248 17.028C3.20736 17.0973 2.97275 17.0902 2.75992 17.0078C2.54709 16.9254 2.36885 16.7727 2.2548 16.575L0.4308 13.424C0.317945 13.2261 0.275582 12.9958 0.310642 12.7708C0.345702 12.5457 0.456109 12.3392 0.6238 12.185L2.0488 10.885C1.984 10.2961 1.984 9.70189 2.0488 9.113L0.6238 7.816C0.455871 7.66177 0.345314 7.45507 0.310249 7.22978C0.275183 7.00449 0.317689 6.77397 0.4308 6.576L2.2508 3.423C2.36485 3.22532 2.54309 3.07259 2.75592 2.99019C2.96875 2.90778 3.20336 2.90066 3.4208 2.97L5.2578 3.555C5.5018 3.375 5.7558 3.207 6.0178 3.055C6.2708 2.913 6.5308 2.784 6.7968 2.669L7.2048 0.787C7.25337 0.564198 7.37663 0.364688 7.55414 0.221549C7.73166 0.0784098 7.95276 0.000239966 8.1808 0H11.8208C12.0488 0.000239966 12.2699 0.0784098 12.4474 0.221549C12.625 0.364688 12.7482 0.564198 12.7968 0.787L13.2088 2.67C13.7514 2.9079 14.2659 3.20539 14.7428 3.557L16.5808 2.972C16.7981 2.90292 17.0325 2.91017 17.2451 2.99256C17.4577 3.07495 17.6358 3.22753 17.7498 3.425L19.5698 6.578C19.8018 6.985 19.7218 7.5 19.3768 7.817L17.9518 9.117C18.0166 9.70589 18.0166 10.3001 17.9518 10.889L19.3768 12.189C19.7218 12.507 19.8018 13.021 19.5698 13.428L17.7498 16.581C17.6357 16.7787 17.4575 16.9314 17.2447 17.0138C17.0318 17.0962 16.7972 17.1033 16.5798 17.034L14.7428 16.449C14.2659 16.8003 13.7514 17.0975 13.2088 17.335L12.7968 19.214C12.748 19.4366 12.6247 19.6359 12.4472 19.7788C12.2697 19.9218 12.0487 19.9998 11.8208 20ZM5.6208 14.229L6.4408 14.829C6.6258 14.965 6.8178 15.09 7.0178 15.204C7.2058 15.313 7.3978 15.411 7.5968 15.5L8.5298 15.909L8.9868 18H11.0168L11.4738 15.908L12.4068 15.499C12.8138 15.319 13.2008 15.096 13.5598 14.833L14.3798 14.233L16.4218 14.883L17.4368 13.125L15.8538 11.682L15.9658 10.67C16.0158 10.227 16.0158 9.78 15.9658 9.338L15.8538 8.326L17.4378 6.88L16.4218 5.121L14.3808 5.771L13.5598 5.171C13.2006 4.90669 12.814 4.68173 12.4068 4.5L11.4738 4.091L11.0168 2H8.9868L8.5268 4.092L7.5968 4.5C7.18898 4.67861 6.80228 4.90198 6.4438 5.166L5.6228 5.766L3.5828 5.116L2.5658 6.88L4.1488 8.321L4.0368 9.334C3.9868 9.777 3.9868 10.224 4.0368 10.666L4.1488 11.678L2.5658 13.121L3.5808 14.879L5.6208 14.229ZM9.9968 14C8.93593 14 7.91852 13.5786 7.16837 12.8284C6.41822 12.0783 5.9968 11.0609 5.9968 10C5.9968 8.93913 6.41822 7.92172 7.16837 7.17157C7.91852 6.42143 8.93593 6 9.9968 6C11.0577 6 12.0751 6.42143 12.8252 7.17157C13.5754 7.92172 13.9968 8.93913 13.9968 10C13.9968 11.0609 13.5754 12.0783 12.8252 12.8284C12.0751 13.5786 11.0577 14 9.9968 14ZM9.9968 8C9.60515 8.0004 9.22225 8.11577 8.89558 8.33181C8.56891 8.54785 8.31286 8.85505 8.1592 9.21528C8.00553 9.57552 7.96102 9.97295 8.03117 10.3583C8.10133 10.7436 8.28307 11.0998 8.55384 11.3828C8.82461 11.6657 9.17251 11.8629 9.55436 11.95C9.93621 12.037 10.3352 12.01 10.7019 11.8724C11.0685 11.7347 11.3867 11.4924 11.6169 11.1756C11.8471 10.8587 11.9792 10.4812 11.9968 10.09V10.49V10C11.9968 9.46957 11.7861 8.96086 11.411 8.58579C11.0359 8.21071 10.5272 8 9.9968 8Z"/>
</mask>
<path d="M11.8208 20H8.1808C7.95273 20 7.7315 19.9221 7.5538 19.7792C7.3761 19.6362 7.2526 19.4368 7.2038 19.214L6.7968 17.33C6.25386 17.0921 5.73903 16.7946 5.2618 16.443L3.4248 17.028C3.20736 17.0973 2.97275 17.0902 2.75992 17.0078C2.54709 16.9254 2.36885 16.7727 2.2548 16.575L0.4308 13.424C0.317945 13.2261 0.275582 12.9958 0.310642 12.7708C0.345702 12.5457 0.456109 12.3392 0.6238 12.185L2.0488 10.885C1.984 10.2961 1.984 9.70189 2.0488 9.113L0.6238 7.816C0.455871 7.66177 0.345314 7.45507 0.310249 7.22978C0.275183 7.00449 0.317689 6.77397 0.4308 6.576L2.2508 3.423C2.36485 3.22532 2.54309 3.07259 2.75592 2.99019C2.96875 2.90778 3.20336 2.90066 3.4208 2.97L5.2578 3.555C5.5018 3.375 5.7558 3.207 6.0178 3.055C6.2708 2.913 6.5308 2.784 6.7968 2.669L7.2048 0.787C7.25337 0.564198 7.37663 0.364688 7.55414 0.221549C7.73166 0.0784098 7.95276 0.000239966 8.1808 0H11.8208C12.0488 0.000239966 12.2699 0.0784098 12.4474 0.221549C12.625 0.364688 12.7482 0.564198 12.7968 0.787L13.2088 2.67C13.7514 2.9079 14.2659 3.20539 14.7428 3.557L16.5808 2.972C16.7981 2.90292 17.0325 2.91017 17.2451 2.99256C17.4577 3.07495 17.6358 3.22753 17.7498 3.425L19.5698 6.578C19.8018 6.985 19.7218 7.5 19.3768 7.817L17.9518 9.117C18.0166 9.70589 18.0166 10.3001 17.9518 10.889L19.3768 12.189C19.7218 12.507 19.8018 13.021 19.5698 13.428L17.7498 16.581C17.6357 16.7787 17.4575 16.9314 17.2447 17.0138C17.0318 17.0962 16.7972 17.1033 16.5798 17.034L14.7428 16.449C14.2659 16.8003 13.7514 17.0975 13.2088 17.335L12.7968 19.214C12.748 19.4366 12.6247 19.6359 12.4472 19.7788C12.2697 19.9218 12.0487 19.9998 11.8208 20ZM5.6208 14.229L6.4408 14.829C6.6258 14.965 6.8178 15.09 7.0178 15.204C7.2058 15.313 7.3978 15.411 7.5968 15.5L8.5298 15.909L8.9868 18H11.0168L11.4738 15.908L12.4068 15.499C12.8138 15.319 13.2008 15.096 13.5598 14.833L14.3798 14.233L16.4218 14.883L17.4368 13.125L15.8538 11.682L15.9658 10.67C16.0158 10.227 16.0158 9.78 15.9658 9.338L15.8538 8.326L17.4378 6.88L16.4218 5.121L14.3808 5.771L13.5598 5.171C13.2006 4.90669 12.814 4.68173 12.4068 4.5L11.4738 4.091L11.0168 2H8.9868L8.5268 4.092L7.5968 4.5C7.18898 4.67861 6.80228 4.90198 6.4438 5.166L5.6228 5.766L3.5828 5.116L2.5658 6.88L4.1488 8.321L4.0368 9.334C3.9868 9.777 3.9868 10.224 4.0368 10.666L4.1488 11.678L2.5658 13.121L3.5808 14.879L5.6208 14.229ZM9.9968 14C8.93593 14 7.91852 13.5786 7.16837 12.8284C6.41822 12.0783 5.9968 11.0609 5.9968 10C5.9968 8.93913 6.41822 7.92172 7.16837 7.17157C7.91852 6.42143 8.93593 6 9.9968 6C11.0577 6 12.0751 6.42143 12.8252 7.17157C13.5754 7.92172 13.9968 8.93913 13.9968 10C13.9968 11.0609 13.5754 12.0783 12.8252 12.8284C12.0751 13.5786 11.0577 14 9.9968 14ZM9.9968 8C9.60515 8.0004 9.22225 8.11577 8.89558 8.33181C8.56891 8.54785 8.31286 8.85505 8.1592 9.21528C8.00553 9.57552 7.96102 9.97295 8.03117 10.3583C8.10133 10.7436 8.28307 11.0998 8.55384 11.3828C8.82461 11.6657 9.17251 11.8629 9.55436 11.95C9.93621 12.037 10.3352 12.01 10.7019 11.8724C11.0685 11.7347 11.3867 11.4924 11.6169 11.1756C11.8471 10.8587 11.9792 10.4812 11.9968 10.09V10.49V10C11.9968 9.46957 11.7861 8.96086 11.411 8.58579C11.0359 8.21071 10.5272 8 9.9968 8Z" fill="#B2C2CB" stroke="#2E333A" stroke-width="0.8" mask="url(#path-1-inside-1_2_17146)"/>
</svg>
