<svg width="42" height="32" viewBox="0 0 42 32" fill="none" xmlns="http://www.w3.org/2000/svg">
<path d="M9.29153 5.71797L9.41624 5.68423L9.43677 5.55668C9.81678 3.19488 11.7583 1.35901 14.221 1.31602C16.5448 1.27546 18.4614 2.85001 19.0646 4.99585L19.1064 5.14438L19.2607 5.14169L22.358 5.08763L22.5122 5.08494L22.5488 4.93514C23.0781 2.76942 24.9386 1.12894 27.2624 1.08838C29.725 1.0454 31.7296 2.81495 32.1917 5.15824L32.2166 5.28434L32.3416 5.31411C34.7694 5.89205 36.841 7.42561 37.811 9.63073L37.811 9.63385L37.8125 9.72048L37.8768 9.77863L37.8834 9.78459L40.9849 18.0014L40.9845 18.0016L40.9897 18.013C41.4712 19.081 41.7472 20.2651 41.7688 21.5079C41.8546 26.4236 37.9114 30.507 32.9956 30.5928C28.5676 30.6701 24.8186 27.4793 24.0558 23.2526L23.9871 22.8721L23.7162 23.148C23.0522 23.8242 22.1488 24.2594 21.1445 24.2769C20.14 24.2945 19.2208 23.891 18.535 23.2386L18.2547 22.9719L18.1992 23.3548C17.5831 27.6057 13.949 30.9253 9.52095 31.0026C4.6052 31.0884 0.521825 27.1451 0.43602 22.2294C0.411638 20.8325 0.726168 19.4989 1.28388 18.3052L1.28863 18.2951L1.29221 18.2844L3.88528 10.5878L3.92274 10.5872L3.96871 10.4556C4.83773 7.96795 6.88928 6.36777 9.29153 5.71797ZM24.5417 6.15403L24.561 7.25821L17.1361 7.38781L17.1168 6.28363C17.1024 5.46117 16.8094 4.76098 16.3007 4.26973C15.792 3.77849 15.082 3.51002 14.2595 3.52438C13.437 3.53874 12.7368 3.83182 12.2456 4.34051C11.7544 4.84921 11.4859 5.55921 11.5003 6.38167L11.5177 7.38293L10.5173 7.50441L10.517 7.50445C8.44229 7.75995 6.79807 9.03087 6.05162 11.137L6.03953 11.1711L6.04016 11.2073L6.04022 11.2107L5.12015 13.844L4.95766 14.3091L5.39835 14.0889C6.55028 13.5133 7.84294 13.1683 9.20923 13.1444C12.936 13.0794 16.1674 15.3403 17.5594 18.5817L17.711 18.9347L17.9132 18.6081C18.5571 17.5686 19.7113 16.8747 21.0149 16.852C22.3198 16.8292 23.4975 17.4836 24.1759 18.4976L24.3895 18.8168L24.5286 18.4587C25.8053 15.1708 28.9558 12.7984 32.6839 12.7334C34.0662 12.7092 35.3806 13.0351 36.5641 13.5848L37.0059 13.79L36.8358 13.3336L35.8093 10.5793L35.8086 10.5775C35.7989 10.5522 35.7877 10.5303 35.7799 10.5152C35.7769 10.5095 35.7745 10.505 35.7724 10.501C35.7683 10.4932 35.7655 10.4879 35.7626 10.4819C34.9511 8.69188 33.1998 7.32022 31.18 7.14376L31.1798 7.14374L30.1758 7.05725L30.1583 6.05599C30.1439 5.23353 29.8508 4.53334 29.3421 4.04209C28.8334 3.55085 28.1235 3.28238 27.301 3.29674C26.4785 3.3111 25.7783 3.60418 25.2871 4.11287C24.7959 4.62157 24.5274 5.33157 24.5417 6.15403ZM3.22403 19.3651L3.22402 19.3651L3.22306 19.3673C3.20143 19.418 3.19432 19.4703 3.19086 19.4958L3.19027 19.5001C3.18659 19.5267 3.18499 19.5336 3.18514 19.5336C2.84888 20.3529 2.62768 21.2341 2.64438 22.1908C2.70943 25.9176 5.75556 28.8593 9.4824 28.7942C13.2092 28.7292 16.1509 25.683 16.0858 21.9562C16.0208 18.2293 12.9746 15.2877 9.24778 15.3528C6.53191 15.4002 4.24792 17.0437 3.22403 19.3651ZM39.5605 21.5464C39.4954 17.8196 36.4493 14.878 32.7225 14.943C28.9956 15.0081 26.054 18.0542 26.1191 21.7811C26.1841 25.5079 29.2302 28.4495 32.9571 28.3845C36.6839 28.3194 39.6255 25.2733 39.5605 21.5464ZM22.5838 20.5382C22.569 19.6922 21.8994 19.0456 21.0534 19.0603C20.2074 19.0751 19.5608 19.7447 19.5756 20.5907C19.5903 21.4367 20.2599 22.0834 21.1059 22.0686C21.9519 22.0538 22.5986 21.3842 22.5838 20.5382Z" fill="#B2C2CB" stroke="#2E333A" stroke-width="0.4"/>
</svg>
