<svg width="21" height="22" viewBox="0 0 21 22" fill="none" xmlns="http://www.w3.org/2000/svg">
<path d="M16.219 3.12992L16.2225 3.32989L16.4225 3.3264L18.6444 3.28761C19.756 3.26821 20.6822 4.16264 20.7016 5.27424L20.721 6.38518C20.7686 9.11401 18.7528 11.3784 16.1113 11.7569L15.9969 11.7733L15.954 11.8807C15.3074 13.4987 13.8824 14.7342 12.1435 15.118L11.9838 15.1532L11.9866 15.3168L12.0467 18.7607L12.0502 18.9606L12.2502 18.9572L15.583 18.899C16.0862 18.8902 16.5011 19.2909 16.5099 19.794C16.5187 20.2972 16.118 20.7121 15.6148 20.7209L6.72729 20.8761C6.22418 20.8848 5.8092 20.4841 5.80042 19.981C5.79164 19.4779 6.19238 19.0629 6.69549 19.0541L10.0283 18.9959L10.2283 18.9924L10.2248 18.7925L10.1647 15.3486L10.1618 15.185L10.001 15.1554C8.24976 14.8325 6.78249 13.6475 6.07983 12.053L6.03321 11.9472L5.91825 11.9348C3.26519 11.6488 1.17159 9.45608 1.12395 6.72724L1.10456 5.6163C1.08516 4.50471 1.97959 3.5785 3.09118 3.5591L5.31307 3.52031L5.51304 3.51682L5.50955 3.31685C5.49006 2.20018 6.3795 1.27914 7.49617 1.25965L14.1618 1.1433C15.2785 1.1238 16.1995 2.01324 16.219 3.12992ZM3.12299 5.38104L2.92302 5.38453L2.92651 5.5845L2.9459 6.69544C2.97266 8.22878 3.9859 9.50549 5.35764 9.97524L5.62738 10.0676L5.62241 9.78253L5.54833 5.53874L5.54484 5.33877L5.34487 5.34226L3.12299 5.38104ZM7.52797 3.08159L7.328 3.08508L7.33149 3.28505L7.44784 9.9507C7.48177 11.8942 9.09881 13.4558 11.0423 13.4218C12.9858 13.3879 14.5474 11.7709 14.5134 9.82737L14.3971 3.16172L14.3936 2.96175L14.1936 2.96524L7.52797 3.08159ZM16.3319 9.5956L16.3369 9.88068L16.6032 9.77895C17.9577 9.26161 18.9258 7.95031 18.899 6.41698L18.8796 5.30604L18.8761 5.10607L18.6762 5.10956L16.4543 5.14834L16.2543 5.15183L16.2578 5.3518L16.3319 9.5956Z" fill="#B2C2CB" stroke="#2E333A" stroke-width="0.4"/>
</svg>
