<svg width="32" height="27" viewBox="0 0 32 27" fill="none" xmlns="http://www.w3.org/2000/svg">
<path fill-rule="evenodd" clip-rule="evenodd" d="M14.6498 7.71773C14.6498 3.93872 17.7133 0.875244 21.4923 0.875244C23.7111 0.875244 25.4814 1.92339 26.6674 3.44637C27.9218 3.18925 29.1245 2.72403 30.2254 2.07C29.7991 3.39649 28.9067 4.52365 27.7133 5.24288L27.7177 5.24944C28.8506 5.11257 29.9567 4.808 31 4.34572L30.9978 4.3501C30.2604 5.45513 29.3348 6.42888 28.2669 7.22319C28.3238 7.6105 28.3545 7.99782 28.3545 8.38294C28.3545 16.4508 22.2078 25.8338 10.9036 25.8338C7.57036 25.8367 4.30678 24.8795 1.50314 23.0767C1.37115 22.9919 1.25891 22.8798 1.17404 22.748C1.08917 22.6161 1.03364 22.4675 1.01123 22.3122C0.988816 22.157 1.00004 21.9988 1.04414 21.8483C1.08824 21.6978 1.16418 21.5585 1.26682 21.4399C1.36442 21.2776 1.50674 21.1469 1.67673 21.0635C1.84672 20.98 2.03717 20.9474 2.22524 20.9694C4.22963 21.2058 6.22964 20.9607 7.99551 20.1904C7.12452 19.8056 6.34477 19.2409 5.70743 18.5334C5.0701 17.826 4.5896 16.9917 4.29747 16.0854C4.24345 15.9168 4.23587 15.7368 4.27554 15.5643C4.3152 15.3918 4.40064 15.2331 4.52285 15.1051C3.80372 14.474 3.2277 13.6965 2.83334 12.8248C2.43898 11.953 2.23539 11.0071 2.23619 10.0503V9.97594C2.23613 9.74703 2.31584 9.52524 2.46161 9.34873C2.60737 9.17221 2.81008 9.052 3.03488 9.00876C2.53877 8.05137 2.28057 6.98857 2.28214 5.91028C2.28214 4.8862 2.2887 3.59517 3.00862 2.43105C3.08554 2.30772 3.1888 2.20295 3.311 2.12426C3.4332 2.04557 3.57131 1.99491 3.71541 1.97591C3.92435 1.91001 4.14827 1.90836 4.35816 1.97117C4.56805 2.03398 4.75426 2.15836 4.89265 2.3282C7.33188 5.32885 10.8207 7.28993 14.652 7.81401V7.71773H14.6498ZM10.9036 23.6456C8.33312 23.6294 4.90827 22.8546 4.89265 22.748C4.87704 22.6413 9.52284 22.748 11.5478 20.0569C11.6877 19.8709 11.6026 19.6539 11.5379 19.4611C11.4731 19.2682 11.3502 19.1002 11.1861 18.98C11.022 18.8599 10.8247 18.7935 10.6213 18.79C9.88877 18.7768 9.16914 18.5946 8.51857 18.2575C7.868 17.9205 7.30408 17.4377 6.87078 16.8469C7.28654 16.814 7.69354 16.7418 8.08742 16.6368C8.30213 16.5794 8.4911 16.4511 8.62362 16.2726C8.75613 16.0942 8.82439 15.8762 8.81729 15.6541C8.81019 15.4319 8.72815 15.2187 8.58451 15.0491C8.44087 14.8795 8.24408 14.7635 8.02615 14.7199C7.19367 14.5513 6.42131 14.1634 5.78889 13.5964C5.15647 13.0294 4.68692 12.3038 4.42876 11.4945C4.8664 11.5996 5.32373 11.663 5.792 11.6784C6.00599 11.6856 6.2165 11.6228 6.39163 11.4996C6.56676 11.3764 6.69697 11.1995 6.76252 10.9957C6.82807 10.7919 6.8254 10.5722 6.75491 10.37C6.68442 10.1679 6.54995 9.99417 6.37187 9.87529C5.71892 9.44029 5.18352 8.85074 4.81323 8.15903C4.44294 7.46732 4.24924 6.69486 4.24932 5.91028C4.24932 5.54266 4.25589 5.21662 4.27777 4.91903C7.33965 8.04374 11.4664 9.90009 15.8358 10.1182C16.0045 10.1268 16.173 10.0961 16.3279 10.0287C16.4828 9.96135 16.62 9.85899 16.7287 9.72969C16.8375 9.60039 16.9148 9.44767 16.9546 9.28349C16.9945 9.11931 16.9957 8.94813 16.9584 8.78338C16.7976 8.10012 16.7936 7.38936 16.9464 6.70429C17.0992 6.01923 17.405 5.3776 17.8409 4.82744C18.2768 4.27727 18.8315 3.83282 19.4634 3.52734C20.0953 3.22186 20.7882 3.06327 21.4901 3.06344C24.1903 3.06344 26.1641 5.56454 26.1641 8.38513C26.1641 15.5099 19.4634 23.6994 10.9036 23.6456Z" fill="#B2C2CB"/>
<path fill-rule="evenodd" clip-rule="evenodd" d="M14.6498 7.71773C14.6498 3.93872 17.7133 0.875244 21.4923 0.875244C23.7111 0.875244 25.4814 1.92339 26.6674 3.44637C27.9218 3.18925 29.1245 2.72403 30.2254 2.07C29.7991 3.39649 28.9067 4.52365 27.7133 5.24288L27.7177 5.24944C28.8506 5.11257 29.9567 4.808 31 4.34572L30.9978 4.3501C30.2604 5.45513 29.3348 6.42888 28.2669 7.22319C28.3238 7.6105 28.3545 7.99782 28.3545 8.38294C28.3545 16.4508 22.2078 25.8338 10.9036 25.8338C7.57036 25.8367 4.30678 24.8795 1.50314 23.0767C1.37115 22.9919 1.25891 22.8798 1.17404 22.748C1.08917 22.6161 1.03364 22.4675 1.01123 22.3122C0.988816 22.157 1.00004 21.9988 1.04414 21.8483C1.08824 21.6978 1.16418 21.5585 1.26682 21.4399C1.36442 21.2776 1.50674 21.1469 1.67673 21.0635C1.84672 20.98 2.03717 20.9474 2.22524 20.9694C4.22963 21.2058 6.22964 20.9607 7.99551 20.1904C7.12452 19.8056 6.34477 19.2409 5.70743 18.5334C5.0701 17.826 4.5896 16.9917 4.29747 16.0854C4.24345 15.9168 4.23587 15.7368 4.27554 15.5643C4.3152 15.3918 4.40064 15.2331 4.52285 15.1051C3.80372 14.474 3.2277 13.6965 2.83334 12.8248C2.43898 11.953 2.23539 11.0071 2.23619 10.0503V9.97594C2.23613 9.74703 2.31584 9.52524 2.46161 9.34873C2.60737 9.17221 2.81008 9.052 3.03488 9.00876C2.53877 8.05137 2.28057 6.98857 2.28214 5.91028C2.28214 4.8862 2.2887 3.59517 3.00862 2.43105C3.08554 2.30772 3.1888 2.20295 3.311 2.12426C3.4332 2.04557 3.57131 1.99491 3.71541 1.97591C3.92435 1.91001 4.14827 1.90836 4.35816 1.97117C4.56805 2.03398 4.75426 2.15836 4.89265 2.3282C7.33188 5.32885 10.8207 7.28993 14.652 7.81401V7.71773H14.6498ZM10.9036 23.6456C8.33312 23.6294 4.90827 22.8546 4.89265 22.748C4.87704 22.6413 9.52284 22.748 11.5478 20.0569C11.6877 19.8709 11.6026 19.6539 11.5379 19.4611C11.4731 19.2682 11.3502 19.1002 11.1861 18.98C11.022 18.8599 10.8247 18.7935 10.6213 18.79C9.88877 18.7768 9.16914 18.5946 8.51857 18.2575C7.868 17.9205 7.30408 17.4377 6.87078 16.8469C7.28654 16.814 7.69354 16.7418 8.08742 16.6368C8.30213 16.5794 8.4911 16.4511 8.62362 16.2726C8.75613 16.0942 8.82439 15.8762 8.81729 15.6541C8.81019 15.4319 8.72815 15.2187 8.58451 15.0491C8.44087 14.8795 8.24408 14.7635 8.02615 14.7199C7.19367 14.5513 6.42131 14.1634 5.78889 13.5964C5.15647 13.0294 4.68692 12.3038 4.42876 11.4945C4.8664 11.5996 5.32373 11.663 5.792 11.6784C6.00599 11.6856 6.2165 11.6228 6.39163 11.4996C6.56676 11.3764 6.69697 11.1995 6.76252 10.9957C6.82807 10.7919 6.8254 10.5722 6.75491 10.37C6.68442 10.1679 6.54995 9.99417 6.37187 9.87529C5.71892 9.44029 5.18352 8.85074 4.81323 8.15903C4.44294 7.46732 4.24924 6.69486 4.24932 5.91028C4.24932 5.54266 4.25589 5.21662 4.27777 4.91903C7.33965 8.04374 11.4664 9.90009 15.8358 10.1182C16.0045 10.1268 16.173 10.0961 16.3279 10.0287C16.4828 9.96135 16.62 9.85899 16.7287 9.72969C16.8375 9.60039 16.9148 9.44767 16.9546 9.28349C16.9945 9.11931 16.9957 8.94813 16.9584 8.78338C16.7976 8.10012 16.7936 7.38936 16.9464 6.70429C17.0992 6.01923 17.405 5.3776 17.8409 4.82744C18.2768 4.27727 18.8315 3.83282 19.4634 3.52734C20.0953 3.22186 20.7882 3.06327 21.4901 3.06344C24.1903 3.06344 26.1641 5.56454 26.1641 8.38513C26.1641 15.5099 19.4634 23.6994 10.9036 23.6456Z" stroke="#2E333A" stroke-width="0.5"/>
</svg>
