<svg width="32" height="30" viewBox="0 0 32 30" fill="none" xmlns="http://www.w3.org/2000/svg">
<path d="M26.4682 5.46545C26.4682 5.5181 26.509 5.56172 26.5615 5.56523C27.8306 5.65003 29.0201 6.214 29.8889 7.14292C30.7577 8.07183 31.241 9.29625 31.2409 10.5682V24.8864C31.2409 26.2161 30.7127 27.4913 29.7725 28.4315C28.8322 29.3718 27.557 29.9 26.2273 29.9H5.77821C4.44851 29.9 3.17327 29.3718 2.23303 28.4315C1.2928 27.4913 0.764575 26.2161 0.764575 24.8864V10.5682C0.764575 10.5567 0.762655 10.5458 0.75912 10.5355V4.14359C0.770436 4.12533 0.775662 4.10375 0.773725 4.08203C0.763886 3.97166 0.759013 3.8609 0.75912 3.7501L0.659119 3.75H0.75912C0.75912 2.78196 1.14367 1.85357 1.82818 1.16906C2.51269 0.484553 3.44108 0.1 4.40912 0.1H22.8182C23.7862 0.1 24.7146 0.484553 25.3991 1.16906C26.0837 1.85357 26.4682 2.78196 26.4682 3.75V5.46545ZM2.71003 7.4C2.6548 7.4 2.61003 7.44477 2.61003 7.5V24.8864C2.61003 25.7266 2.94382 26.5325 3.53797 27.1266C4.13212 27.7208 4.93796 28.0545 5.77821 28.0545H26.2273C27.0676 28.0545 27.8734 27.7208 28.4675 27.1266C29.0617 26.5325 29.3955 25.7266 29.3955 24.8864V10.5682C29.3955 9.72793 29.0617 8.92209 28.4675 8.32794C27.8734 7.73379 27.0676 7.4 26.2273 7.4H2.71003ZM24.5228 5.55455C24.578 5.55455 24.6228 5.50977 24.6228 5.45455V3.75C24.6228 2.75386 23.8143 1.94545 22.8182 1.94545H4.40912C3.93052 1.94545 3.47153 2.13558 3.13311 2.47399C2.7947 2.81241 2.60457 3.2714 2.60457 3.75C2.60457 4.2286 2.7947 4.68759 3.13311 5.02601C3.47153 5.36442 3.93052 5.55455 4.40912 5.55455H24.5228ZM21.4839 18.0975C21.657 17.9245 21.8917 17.8273 22.1364 17.8273H25.5455C25.7902 17.8273 26.0249 17.9245 26.1979 18.0975C26.371 18.2706 26.4682 18.5053 26.4682 18.75C26.4682 18.9947 26.371 19.2294 26.1979 19.4025C26.0249 19.5755 25.7902 19.6727 25.5455 19.6727H22.1364C21.8917 19.6727 21.657 19.5755 21.4839 19.4025C21.3109 19.2294 21.2137 18.9947 21.2137 18.75C21.2137 18.5053 21.3109 18.2706 21.4839 18.0975Z" fill="#B2C2CB" stroke="#2E333A" stroke-width="0.2" stroke-linejoin="round"/>
</svg>
