<svg width="42" height="31" viewBox="0 0 42 31" fill="none" xmlns="http://www.w3.org/2000/svg">
<path d="M9.29153 5.07246L9.41624 5.03873L9.43677 4.91117C9.81678 2.54937 11.7583 0.713498 14.221 0.670513C16.5448 0.62995 18.4614 2.20451 19.0646 4.35034L19.1064 4.49888L19.2607 4.49618L22.358 4.44212L22.5122 4.43943L22.5488 4.28963C23.0781 2.12392 24.9386 0.483436 27.2624 0.442873C29.725 0.399888 31.7296 2.16944 32.1917 4.51273L32.2166 4.63883L32.3416 4.6686C34.7694 5.24654 36.841 6.7801 37.811 8.98522L37.811 8.98834L37.8125 9.07497L37.8768 9.13312L37.8834 9.13908L40.9849 17.3559L40.9845 17.3561L40.9897 17.3675C41.4712 18.4355 41.7472 19.6196 41.7688 20.8624C41.8546 25.7781 37.9114 29.8615 32.9956 29.9473C28.5676 30.0246 24.8186 26.8338 24.0558 22.6071L23.9871 22.2266L23.7162 22.5025C23.0522 23.1787 22.1488 23.6139 21.1445 23.6314C20.14 23.649 19.2208 23.2455 18.535 22.593L18.2547 22.3264L18.1992 22.7093C17.5831 26.9602 13.949 30.2798 9.52095 30.3571C4.6052 30.4429 0.521825 26.4996 0.43602 21.5838C0.411638 20.187 0.726168 18.8534 1.28388 17.6597L1.28863 17.6496L1.29221 17.6389L3.88528 9.94231L3.92274 9.94165L3.96871 9.81007C4.83773 7.32244 6.88928 5.72226 9.29153 5.07246ZM24.5417 5.50852L24.561 6.6127L17.1361 6.7423L17.1168 5.63812C17.1024 4.81566 16.8094 4.11547 16.3007 3.62422C15.792 3.13298 15.082 2.86452 14.2595 2.87887C13.437 2.89323 12.7368 3.18631 12.2456 3.695C11.7544 4.2037 11.4859 4.9137 11.5003 5.73616L11.5177 6.73742L10.5173 6.8589L10.517 6.85894C8.44229 7.11444 6.79807 8.38536 6.05162 10.4914L6.03953 10.5256L6.04016 10.5618L6.04022 10.5651L5.12015 13.1985L4.95766 13.6636L5.39835 13.4434C6.55028 12.8678 7.84294 12.5228 9.20923 12.4989C12.936 12.4339 16.1674 14.6948 17.5594 17.9362L17.711 18.2891L17.9132 17.9626C18.5571 16.9231 19.7113 16.2292 21.0149 16.2065C22.3198 16.1837 23.4975 16.8381 24.1759 17.852L24.3895 18.1713L24.5286 17.8132C25.8053 14.5253 28.9558 12.1529 32.6839 12.0879C34.0662 12.0637 35.3806 12.3896 36.5641 12.9393L37.0059 13.1445L36.8358 12.6881L35.8093 9.93381L35.8086 9.93204C35.7989 9.90665 35.7877 9.88478 35.7799 9.86969C35.7769 9.86403 35.7745 9.85945 35.7724 9.85554C35.7683 9.84765 35.7655 9.84243 35.7626 9.83638C34.9511 8.04637 33.1998 6.67471 31.18 6.49826L31.1798 6.49823L30.1758 6.41175L30.1583 5.41048C30.1439 4.58802 29.8508 3.88783 29.3421 3.39658C28.8334 2.90534 28.1235 2.63688 27.301 2.65123C26.4785 2.66559 25.7783 2.95867 25.2871 3.46736C24.7959 3.97606 24.5274 4.68606 24.5417 5.50852ZM3.22403 18.7196L3.22402 18.7195L3.22306 18.7218C3.20143 18.7725 3.19432 18.8248 3.19086 18.8503L3.19027 18.8546C3.18659 18.8812 3.18499 18.8881 3.18514 18.8881C2.84888 19.7074 2.62768 20.5886 2.64438 21.5453C2.70943 25.2721 5.75556 28.2138 9.4824 28.1487C13.2092 28.0836 16.1509 25.0375 16.0858 21.3107C16.0208 17.5838 12.9746 14.6422 9.24778 14.7073C6.53191 14.7547 4.24792 16.3981 3.22403 18.7196ZM39.5605 20.9009C39.4954 17.1741 36.4493 14.2325 32.7225 14.2975C28.9956 14.3626 26.054 17.4087 26.1191 21.1355C26.1841 24.8624 29.2302 27.804 32.9571 27.739C36.6839 27.6739 39.6255 24.6278 39.5605 20.9009ZM22.5838 19.8927C22.569 19.0467 21.8994 18.4001 21.0534 18.4148C20.2074 18.4296 19.5608 19.0992 19.5756 19.9452C19.5903 20.7912 20.2599 21.4378 21.1059 21.4231C21.9519 21.4083 22.5986 20.7387 22.5838 19.8927Z" fill="#B2C2CB" stroke="#2E333A" stroke-width="0.4"/>
</svg>
