<svg width="38" height="30" viewBox="0 0 38 30" fill="none" xmlns="http://www.w3.org/2000/svg">
<mask id="path-1-inside-1_3_140833" fill="white">
<path d="M14.4658 0L13.4068 0.127457C13.4068 0.127457 8.65561 0.64678 5.18578 3.43322H5.1451L5.10171 3.4739C4.32341 4.18983 3.98442 5.06983 3.44883 6.35661C2.81748 7.90476 2.28001 9.48956 1.83934 11.1024C0.833239 14.7403 0.0169678 19.1471 0.0169678 23.1783L0.0169678 23.5173L0.186459 23.8563C1.44205 26.0597 3.6712 27.463 5.73764 28.4325C7.80273 29.402 9.58849 29.9159 10.8224 29.958L11.6278 30L12.0509 29.28L13.5343 26.6522C15.1071 27.0075 16.9187 27.2461 19 27.2461C21.0814 27.2461 22.8929 27.0075 24.4658 26.6522L25.9492 29.28L26.3736 30L27.1776 29.958C28.4115 29.9159 30.1973 29.402 32.2624 28.4325C34.3288 27.463 36.558 26.0597 37.8136 23.8563L37.9831 23.5173V23.1783C37.9831 19.1471 37.1668 14.7403 36.1607 11.1024C35.72 9.48956 35.1825 7.90476 34.5512 6.35661C34.0156 5.06847 33.6766 4.18983 32.8983 3.47525L32.8563 3.43186H32.8129C29.3458 0.646779 24.5932 0.127457 24.5932 0.127457L23.5342 0L23.1519 0.974915C23.1519 0.974915 22.76 1.96475 22.5173 3.09424C21.3516 2.9334 20.1767 2.84825 19 2.83932C18.2746 2.83932 17.0204 2.88678 15.4827 3.09424C15.2387 1.96475 14.8468 0.974915 14.8468 0.974915L14.4658 0ZM12.6014 3.09424C12.6597 3.28407 12.718 3.44814 12.7709 3.60271C11.0176 4.03661 9.14781 4.6983 7.43256 5.76271L8.87256 8.05152C12.3898 5.86847 17.442 5.55119 19 5.55119C20.5566 5.55119 25.6102 5.86847 29.1275 8.05152L30.5675 5.76271C28.8522 4.6983 26.9824 4.03661 25.2292 3.60136C25.282 3.44814 25.3404 3.28407 25.3987 3.09288C26.6637 3.3478 29.08 3.93085 31.0759 5.50915C31.0651 5.51458 31.5844 6.2983 32.0509 7.41559C32.5281 8.56542 33.057 10.0963 33.5342 11.8224C34.4509 15.1322 35.1709 19.1634 35.2292 22.7119C34.3749 24.0149 32.7926 25.1905 31.118 25.9756C30.0678 26.4719 28.9567 26.8275 27.8136 27.0332L27.1356 25.8902C27.5383 25.741 27.9356 25.5783 28.28 25.4237C30.3668 24.5071 31.5004 23.5173 31.5004 23.5173L29.72 21.4834C29.72 21.4834 28.958 22.183 27.1776 22.9668C25.4 23.7505 22.6814 24.5342 19 24.5342C15.3187 24.5342 12.6014 23.7505 10.8224 22.9668C9.04205 22.183 8.28002 21.4834 8.28002 21.4834L6.49968 23.5173C6.49968 23.5173 7.63324 24.5071 9.72002 25.4237C10.0644 25.5783 10.4617 25.7424 10.8644 25.8902L10.1865 27.0346C9.04269 26.8281 7.93118 26.4715 6.88069 25.9742C5.20747 25.1905 3.62375 24.0149 2.77222 22.7119C2.82917 19.1634 3.54917 15.1322 4.46714 11.8224C4.87276 10.3252 5.36766 8.85363 5.94917 7.41559C6.41561 6.2983 6.93493 5.51458 6.92408 5.50915C8.92002 3.93085 11.3363 3.3478 12.6014 3.09424ZM14.2543 12.3308C13.2061 12.3308 12.2787 12.9288 11.7119 13.6868C11.1451 14.4447 10.8644 15.3763 10.8644 16.3986C10.8644 17.421 11.1451 18.3525 11.7119 19.1105C12.2787 19.8685 13.2061 20.4664 14.2543 20.4664C15.3024 20.4664 16.2298 19.8685 16.7966 19.1105C17.3634 18.3525 17.6441 17.421 17.6441 16.3986C17.6441 15.3763 17.3634 14.4447 16.7966 13.6868C16.2298 12.9288 15.3024 12.3308 14.2543 12.3308ZM23.7458 12.3308C22.6976 12.3308 21.7702 12.9288 21.2034 13.6868C20.6366 14.4447 20.3559 15.3763 20.3559 16.3986C20.3559 17.421 20.6366 18.3525 21.2034 19.1105C21.7702 19.8685 22.6976 20.4664 23.7458 20.4664C24.7939 20.4664 25.7214 19.8685 26.2881 19.1105C26.8549 18.3525 27.1356 17.421 27.1356 16.3986C27.1356 15.3763 26.8549 14.4447 26.2881 13.6868C25.7214 12.9288 24.7939 12.3308 23.7458 12.3308ZM14.2543 15.0427C14.3288 15.0427 14.4237 15.0698 14.5932 15.2976C14.7627 15.5241 14.9322 15.9214 14.9322 16.3986C14.9322 16.8759 14.7627 17.2732 14.5932 17.501C14.4237 17.7275 14.3288 17.7546 14.2543 17.7546C14.1797 17.7546 14.0848 17.7275 13.9153 17.4997C13.691 17.1766 13.5726 16.7919 13.5763 16.3986C13.5763 15.9214 13.7458 15.5241 13.9153 15.2963C14.0848 15.0698 14.1797 15.0427 14.2543 15.0427ZM23.7458 15.0427C23.8204 15.0427 23.9153 15.0698 24.0848 15.2976C24.2542 15.5241 24.4237 15.9214 24.4237 16.3986C24.4237 16.8759 24.2542 17.2732 24.0848 17.501C23.9153 17.7275 23.8204 17.7546 23.7458 17.7546C23.6712 17.7546 23.5763 17.7275 23.4068 17.4997C23.1826 17.1766 23.0641 16.7919 23.0678 16.3986C23.0678 15.9214 23.2373 15.5241 23.4068 15.2963C23.5763 15.0698 23.6712 15.0427 23.7458 15.0427Z"/>
</mask>
<path d="M14.4658 0L13.4068 0.127457C13.4068 0.127457 8.65561 0.64678 5.18578 3.43322H5.1451L5.10171 3.4739C4.32341 4.18983 3.98442 5.06983 3.44883 6.35661C2.81748 7.90476 2.28001 9.48956 1.83934 11.1024C0.833239 14.7403 0.0169678 19.1471 0.0169678 23.1783L0.0169678 23.5173L0.186459 23.8563C1.44205 26.0597 3.6712 27.463 5.73764 28.4325C7.80273 29.402 9.58849 29.9159 10.8224 29.958L11.6278 30L12.0509 29.28L13.5343 26.6522C15.1071 27.0075 16.9187 27.2461 19 27.2461C21.0814 27.2461 22.8929 27.0075 24.4658 26.6522L25.9492 29.28L26.3736 30L27.1776 29.958C28.4115 29.9159 30.1973 29.402 32.2624 28.4325C34.3288 27.463 36.558 26.0597 37.8136 23.8563L37.9831 23.5173V23.1783C37.9831 19.1471 37.1668 14.7403 36.1607 11.1024C35.72 9.48956 35.1825 7.90476 34.5512 6.35661C34.0156 5.06847 33.6766 4.18983 32.8983 3.47525L32.8563 3.43186H32.8129C29.3458 0.646779 24.5932 0.127457 24.5932 0.127457L23.5342 0L23.1519 0.974915C23.1519 0.974915 22.76 1.96475 22.5173 3.09424C21.3516 2.9334 20.1767 2.84825 19 2.83932C18.2746 2.83932 17.0204 2.88678 15.4827 3.09424C15.2387 1.96475 14.8468 0.974915 14.8468 0.974915L14.4658 0ZM12.6014 3.09424C12.6597 3.28407 12.718 3.44814 12.7709 3.60271C11.0176 4.03661 9.14781 4.6983 7.43256 5.76271L8.87256 8.05152C12.3898 5.86847 17.442 5.55119 19 5.55119C20.5566 5.55119 25.6102 5.86847 29.1275 8.05152L30.5675 5.76271C28.8522 4.6983 26.9824 4.03661 25.2292 3.60136C25.282 3.44814 25.3404 3.28407 25.3987 3.09288C26.6637 3.3478 29.08 3.93085 31.0759 5.50915C31.0651 5.51458 31.5844 6.2983 32.0509 7.41559C32.5281 8.56542 33.057 10.0963 33.5342 11.8224C34.4509 15.1322 35.1709 19.1634 35.2292 22.7119C34.3749 24.0149 32.7926 25.1905 31.118 25.9756C30.0678 26.4719 28.9567 26.8275 27.8136 27.0332L27.1356 25.8902C27.5383 25.741 27.9356 25.5783 28.28 25.4237C30.3668 24.5071 31.5004 23.5173 31.5004 23.5173L29.72 21.4834C29.72 21.4834 28.958 22.183 27.1776 22.9668C25.4 23.7505 22.6814 24.5342 19 24.5342C15.3187 24.5342 12.6014 23.7505 10.8224 22.9668C9.04205 22.183 8.28002 21.4834 8.28002 21.4834L6.49968 23.5173C6.49968 23.5173 7.63324 24.5071 9.72002 25.4237C10.0644 25.5783 10.4617 25.7424 10.8644 25.8902L10.1865 27.0346C9.04269 26.8281 7.93118 26.4715 6.88069 25.9742C5.20747 25.1905 3.62375 24.0149 2.77222 22.7119C2.82917 19.1634 3.54917 15.1322 4.46714 11.8224C4.87276 10.3252 5.36766 8.85363 5.94917 7.41559C6.41561 6.2983 6.93493 5.51458 6.92408 5.50915C8.92002 3.93085 11.3363 3.3478 12.6014 3.09424ZM14.2543 12.3308C13.2061 12.3308 12.2787 12.9288 11.7119 13.6868C11.1451 14.4447 10.8644 15.3763 10.8644 16.3986C10.8644 17.421 11.1451 18.3525 11.7119 19.1105C12.2787 19.8685 13.2061 20.4664 14.2543 20.4664C15.3024 20.4664 16.2298 19.8685 16.7966 19.1105C17.3634 18.3525 17.6441 17.421 17.6441 16.3986C17.6441 15.3763 17.3634 14.4447 16.7966 13.6868C16.2298 12.9288 15.3024 12.3308 14.2543 12.3308ZM23.7458 12.3308C22.6976 12.3308 21.7702 12.9288 21.2034 13.6868C20.6366 14.4447 20.3559 15.3763 20.3559 16.3986C20.3559 17.421 20.6366 18.3525 21.2034 19.1105C21.7702 19.8685 22.6976 20.4664 23.7458 20.4664C24.7939 20.4664 25.7214 19.8685 26.2881 19.1105C26.8549 18.3525 27.1356 17.421 27.1356 16.3986C27.1356 15.3763 26.8549 14.4447 26.2881 13.6868C25.7214 12.9288 24.7939 12.3308 23.7458 12.3308ZM14.2543 15.0427C14.3288 15.0427 14.4237 15.0698 14.5932 15.2976C14.7627 15.5241 14.9322 15.9214 14.9322 16.3986C14.9322 16.8759 14.7627 17.2732 14.5932 17.501C14.4237 17.7275 14.3288 17.7546 14.2543 17.7546C14.1797 17.7546 14.0848 17.7275 13.9153 17.4997C13.691 17.1766 13.5726 16.7919 13.5763 16.3986C13.5763 15.9214 13.7458 15.5241 13.9153 15.2963C14.0848 15.0698 14.1797 15.0427 14.2543 15.0427ZM23.7458 15.0427C23.8204 15.0427 23.9153 15.0698 24.0848 15.2976C24.2542 15.5241 24.4237 15.9214 24.4237 16.3986C24.4237 16.8759 24.2542 17.2732 24.0848 17.501C23.9153 17.7275 23.8204 17.7546 23.7458 17.7546C23.6712 17.7546 23.5763 17.7275 23.4068 17.4997C23.1826 17.1766 23.0641 16.7919 23.0678 16.3986C23.0678 15.9214 23.2373 15.5241 23.4068 15.2963C23.5763 15.0698 23.6712 15.0427 23.7458 15.0427Z" fill="white" stroke="#2E333A" stroke-width="0.8" mask="url(#path-1-inside-1_3_140833)"/>
</svg>
