<svg width="42" height="32" viewBox="0 0 42 32" fill="none" xmlns="http://www.w3.org/2000/svg">
<path d="M9.29153 5.71802L9.41624 5.68429L9.43677 5.55673C9.81678 3.19493 11.7583 1.35906 14.221 1.31607C16.5448 1.27551 18.4614 2.85007 19.0646 4.9959L19.1064 5.14444L19.2607 5.14174L22.358 5.08768L22.5122 5.08499L22.5488 4.93519C23.0781 2.76948 24.9386 1.129 27.2624 1.08843C29.725 1.04545 31.7296 2.815 32.1917 5.15829L32.2166 5.28439L32.3416 5.31416C34.7694 5.8921 36.841 7.42566 37.811 9.63078L37.811 9.6339L37.8125 9.72053L37.8768 9.77868L37.8834 9.78465L40.9849 18.0015L40.9845 18.0016L40.9897 18.0131C41.4712 19.081 41.7472 20.2652 41.7688 21.5079C41.8546 26.4237 37.9114 30.5071 32.9956 30.5929C28.5676 30.6702 24.8186 27.4794 24.0558 23.2527L23.9871 22.8722L23.7162 23.148C23.0522 23.8243 22.1488 24.2595 21.1445 24.277C20.14 24.2945 19.2208 23.8911 18.535 23.2386L18.2547 22.9719L18.1992 23.3548C17.5831 27.6057 13.949 30.9253 9.52095 31.0026C4.6052 31.0884 0.521825 27.1452 0.43602 22.2294C0.411638 20.8326 0.726168 19.4989 1.28388 18.3053L1.28863 18.2951L1.29221 18.2845L3.88528 10.5879L3.92274 10.5872L3.96871 10.4556C4.83773 7.968 6.88928 6.36782 9.29153 5.71802ZM24.5417 6.15408L24.561 7.25826L17.1361 7.38786L17.1168 6.28368C17.1024 5.46122 16.8094 4.76103 16.3007 4.26978C15.792 3.77854 15.082 3.51008 14.2595 3.52443C13.437 3.53879 12.7368 3.83187 12.2456 4.34057C11.7544 4.84926 11.4859 5.55926 11.5003 6.38172L11.5177 7.38298L10.5173 7.50446L10.517 7.5045C8.44229 7.76 6.79807 9.03092 6.05162 11.137L6.03953 11.1711L6.04016 11.2073L6.04022 11.2107L5.12015 13.8441L4.95766 14.3091L5.39835 14.089C6.55028 13.5134 7.84294 13.1683 9.20923 13.1445C12.936 13.0794 16.1674 15.3404 17.5594 18.5818L17.711 18.9347L17.9132 18.6082C18.5571 17.5686 19.7113 16.8748 21.0149 16.852C22.3198 16.8293 23.4975 17.4837 24.1759 18.4976L24.3895 18.8169L24.5286 18.4588C25.8053 15.1709 28.9558 12.7985 32.6839 12.7334C34.0662 12.7093 35.3806 13.0352 36.5641 13.5849L37.0059 13.79L36.8358 13.3336L35.8093 10.5794L35.8086 10.5776C35.7989 10.5522 35.7877 10.5303 35.7799 10.5152C35.7769 10.5096 35.7745 10.505 35.7724 10.5011C35.7683 10.4932 35.7655 10.488 35.7626 10.4819C34.9511 8.69193 33.1998 7.32027 31.18 7.14382L31.1798 7.1438L30.1758 7.05731L30.1583 6.05604C30.1439 5.23358 29.8508 4.53339 29.3421 4.04214C28.8334 3.5509 28.1235 3.28244 27.301 3.29679C26.4785 3.31115 25.7783 3.60423 25.2871 4.11293C24.7959 4.62162 24.5274 5.33162 24.5417 6.15408ZM3.22403 19.3651L3.22402 19.3651L3.22306 19.3674C3.20143 19.4181 3.19432 19.4704 3.19086 19.4959L3.19027 19.5001C3.18659 19.5268 3.18499 19.5336 3.18514 19.5337C2.84888 20.353 2.62768 21.2342 2.64438 22.1909C2.70943 25.9177 5.75556 28.8593 9.4824 28.7943C13.2092 28.7292 16.1509 25.6831 16.0858 21.9562C16.0208 18.2294 12.9746 15.2878 9.24778 15.3528C6.53191 15.4002 4.24792 17.0437 3.22403 19.3651ZM39.5605 21.5465C39.4954 17.8196 36.4493 14.878 32.7225 14.9431C28.9956 15.0081 26.054 18.0543 26.1191 21.7811C26.1841 25.508 29.2302 28.4496 32.9571 28.3845C36.6839 28.3195 39.6255 25.2733 39.5605 21.5465ZM22.5838 20.5383C22.569 19.6923 21.8994 19.0456 21.0534 19.0604C20.2074 19.0752 19.5608 19.7448 19.5756 20.5908C19.5903 21.4368 20.2599 22.0834 21.1059 22.0686C21.9519 22.0539 22.5986 21.3842 22.5838 20.5383Z" fill="#B2C2CB" stroke="#2E333A" stroke-width="0.4"/>
</svg>
