<svg width="26" height="20" viewBox="0 0 26 20" fill="none" xmlns="http://www.w3.org/2000/svg">
<path d="M11.4487 5.05637V5.32991L11.7211 5.35509C13.5244 5.52184 16.9005 6.0864 19.818 7.9993C22.7171 9.90012 25.182 13.1423 25.182 18.7273H25.182L25.1821 18.734C25.1867 18.9361 25.1265 19.1343 25.0105 19.2998C24.8948 19.4649 24.7295 19.5888 24.5386 19.6536C24.3508 19.7146 24.1486 19.7155 23.9603 19.6561C23.7715 19.5966 23.606 19.4795 23.4871 19.3212L23.4804 19.3123L23.4731 19.3039C22.1458 17.7861 20.5041 16.5753 18.662 15.7556C16.8206 14.9363 14.823 14.5272 12.8077 14.557H11.7487H11.4487V14.857V18.7267C11.4478 18.9129 11.3921 19.0948 11.2885 19.2495C11.1849 19.4045 11.0378 19.5255 10.8658 19.5973C10.6937 19.6692 10.5043 19.6887 10.3212 19.6536C10.1385 19.6184 9.97023 19.5304 9.83723 19.4004C9.83691 19.4001 9.8366 19.3998 9.83628 19.3995L1.09901 10.6622L1.09814 10.6613C1.00924 10.5731 0.938677 10.4682 0.890523 10.3526C0.84237 10.2371 0.817578 10.1131 0.817578 9.98788C0.817578 9.86267 0.84237 9.7387 0.890523 9.62312C0.938677 9.50754 1.00924 9.40263 1.09814 9.31446L1.09901 9.31359L9.83754 0.575058C9.83768 0.574925 9.83781 0.574792 9.83794 0.574659C10.0144 0.399829 10.2524 0.301211 10.5009 0.3C10.7522 0.300168 10.9932 0.400079 11.1709 0.577805C11.3488 0.755681 11.4487 0.996932 11.4487 1.24849V5.05637ZM12.809 12.635L12.8114 12.635C16.259 12.6182 19.6201 13.7142 22.395 15.7601L23.0668 16.2554L22.8641 15.4458C21.8594 11.4335 19.0327 9.36625 16.3421 8.30881C13.6585 7.25417 11.0839 7.19091 10.5002 7.19091C10.2487 7.19091 10.0074 7.09098 9.82954 6.91311C9.65166 6.73523 9.55173 6.49398 9.55173 6.24243V4.25734V3.53195L9.03937 4.04543L3.3213 9.77598L3.10987 9.98788L3.3213 10.1998L9.03937 15.9303L9.55173 16.4438V15.7184V13.7333V13.7329C9.55143 13.5058 9.63264 13.2862 9.78059 13.1138C9.928 12.9421 10.1319 12.8288 10.3555 12.7943C11.1688 12.6857 11.9885 12.6325 12.809 12.635Z" fill="#B2C2CB" stroke="#2E333A" stroke-width="0.6"/>
</svg>
