<svg width="42" height="32" viewBox="0 0 42 32" fill="none" xmlns="http://www.w3.org/2000/svg">
<path d="M9.27847 5.6697L9.37201 5.6444L9.3874 5.54874C9.77097 3.16481 11.7315 1.30947 14.2201 1.26603C16.5684 1.22504 18.5038 2.81635 19.1128 4.98232L19.1441 5.09372L19.2598 5.0917L22.3571 5.03763L22.4728 5.03562L22.5002 4.92327C23.0345 2.73726 24.9132 1.07938 27.2616 1.03839C29.7502 0.99495 31.7743 2.78331 32.2408 5.14857L32.2594 5.24314L32.3532 5.26547C34.7969 5.8472 36.8852 7.3931 37.8608 9.61982L37.861 9.63297L37.8621 9.69795L37.9103 9.74156L37.9259 9.75564L41.0316 17.9838L41.0314 17.9839L41.0352 17.9925C41.5196 19.0666 41.797 20.2574 41.8188 21.507C41.9051 26.4504 37.9399 30.5565 32.9965 30.6428C28.5434 30.7205 24.7736 27.5119 24.0065 23.2615L23.9551 22.9761L23.7519 23.183C23.0796 23.8677 22.164 24.3092 21.1453 24.3269C20.1266 24.3447 19.195 23.9355 18.5006 23.2748L18.2903 23.0748L18.2487 23.3619C17.6291 27.6366 13.9748 30.9748 9.52182 31.0526C4.57846 31.1388 0.472314 27.1736 0.386027 22.2302C0.361504 20.8253 0.677877 19.4841 1.23858 18.2841L1.24214 18.2765L1.24483 18.2685L3.84915 10.5384L3.88703 10.5378L3.9215 10.4391C4.79691 7.93317 6.86329 6.323 9.27847 5.6697ZM35.7329 10.5333C35.726 10.5202 35.7218 10.5124 35.7173 10.5032C34.9127 8.72763 33.1759 7.36832 31.1757 7.19357L31.1755 7.19356L30.1265 7.1032L30.1083 6.05686C30.0941 5.24602 29.8055 4.55901 29.3074 4.07806C28.8094 3.5971 28.1127 3.33258 27.3019 3.34673C26.491 3.36089 25.804 3.64956 25.3231 4.14761C24.8421 4.64565 24.5776 5.34232 24.5917 6.15315L24.6119 7.30733L17.0869 7.43867L17.0668 6.2845C17.0526 5.47366 16.764 4.78665 16.2659 4.3057C15.7679 3.82474 15.0712 3.56022 14.2604 3.57437C13.4495 3.58853 12.7625 3.8772 12.2816 4.37525C11.8006 4.87329 11.5361 5.56996 11.5502 6.38079L11.5685 7.42713L10.5233 7.55404L10.5231 7.55407C8.4672 7.80726 6.83886 9.06544 6.09875 11.1537L6.08968 11.1792L6.09015 11.2064L6.09037 11.2187L5.16735 13.8605L5.04549 14.2093L5.376 14.0442C6.53417 13.4655 7.83413 13.1184 9.20836 13.0944C12.9564 13.029 16.2058 15.3029 17.6054 18.562L17.719 18.8267L17.8707 18.5818C18.5233 17.5282 19.693 16.8251 21.014 16.802C22.3363 16.7789 23.5298 17.4421 24.2175 18.4697L24.3777 18.7092L24.482 18.4406C25.7656 15.1348 28.9336 12.7488 32.683 12.6834C34.0738 12.6591 35.3957 12.987 36.5852 13.5394L36.9165 13.6933L36.7889 13.351L35.7624 10.5968L35.7619 10.5954C35.7533 10.5728 35.7432 10.553 35.7355 10.5383L35.7329 10.5333ZM3.23202 19.551L3.23196 19.5512C2.89725 20.3664 2.67781 21.2412 2.69437 22.1899C2.75894 25.8892 5.7823 28.8088 9.48153 28.7442C13.1808 28.6796 16.1004 25.6563 16.0358 21.9571C15.9712 18.2578 12.9479 15.3382 9.24865 15.4028C6.55315 15.4498 4.28616 17.0809 3.26977 19.3852L3.26905 19.3869C3.25017 19.4312 3.24384 19.4775 3.24032 19.5032L3.2398 19.5069C3.23769 19.5222 3.23636 19.5318 3.23467 19.5403C3.23307 19.5485 3.23196 19.5512 3.23202 19.551ZM39.5105 21.5473C39.4459 17.8481 36.4226 14.9284 32.7233 14.993C29.0241 15.0576 26.1045 18.0809 26.1691 21.7802C26.2336 25.4794 29.257 28.399 32.9562 28.3345C36.6554 28.2699 39.5751 25.2465 39.5105 21.5473ZM22.5338 20.5391C22.5195 19.7207 21.8727 19.0961 21.0543 19.1103C20.2359 19.1246 19.6113 19.7715 19.6255 20.5898C19.6398 21.4082 20.2867 22.0329 21.1051 22.0186C21.9234 22.0043 22.5481 21.3575 22.5338 20.5391Z" fill="#B2C2CB" stroke="#2E333A" stroke-width="0.3"/>
</svg>
