<svg width="31" height="31" viewBox="0 0 31 31" fill="none" xmlns="http://www.w3.org/2000/svg">
<path d="M23.8785 3.5485L23.8828 3.79846L24.1328 3.7941L27.4656 3.73592C29.1606 3.70633 30.5727 5.06997 30.6023 6.76497L30.6314 8.43139C30.7033 12.5506 27.6604 15.9682 23.674 16.5393L23.531 16.5598L23.4773 16.694C22.5014 19.1362 20.3507 21.001 17.726 21.5803L17.5263 21.6243L17.5299 21.8287L17.62 26.9946L17.6244 27.2446L17.8744 27.2402L22.8736 27.153C23.6559 27.1393 24.3011 27.7624 24.3148 28.5447C24.3284 29.327 23.7054 29.9722 22.9231 29.9859L9.59175 30.2186C8.80947 30.2322 8.16423 29.6091 8.15058 28.8268C8.13692 28.0445 8.76002 27.3993 9.5423 27.3857L14.5415 27.2984L14.7915 27.294L14.7871 27.0441L14.697 21.8782L14.6934 21.6738L14.4923 21.6367C11.849 21.1494 9.6345 19.3608 8.57393 16.9542L8.51565 16.8219L8.37196 16.8064C4.36811 16.3747 1.20778 13.0655 1.13588 8.94623L1.10679 7.27982C1.0772 5.58481 2.44084 4.17273 4.13584 4.14314L7.46867 4.08497L7.71863 4.08061L7.71427 3.83064C7.68455 2.12802 9.0407 0.723687 10.7433 0.693968L20.7418 0.519444C22.4445 0.489724 23.8488 1.84587 23.8785 3.5485ZM4.18529 6.97604L3.93533 6.98041L3.93969 7.23037L3.96878 8.89678C4.00854 11.1745 5.51371 13.0718 7.5526 13.77L7.88977 13.8855L7.88355 13.5292L7.77244 7.16347L7.76808 6.91351L7.51812 6.91787L4.18529 6.97604ZM10.7928 3.52687L10.5428 3.53123L10.5472 3.78119L10.7217 13.7797C10.7721 16.6673 13.1749 18.9876 16.0625 18.9372C18.9501 18.8868 21.2705 16.4841 21.2201 13.5964L21.0456 3.59794L21.0412 3.34798L20.7912 3.35235L10.7928 3.52687ZM24.0478 13.247L24.054 13.6034L24.3869 13.4762C26.4002 12.7073 27.8382 10.7586 27.7985 8.48083L27.7694 6.81442L27.765 6.56446L27.5151 6.56882L24.1822 6.627L23.9323 6.63136L23.9366 6.88132L24.0478 13.247Z" fill="#B2C2CB" stroke="#2E333A" stroke-width="0.5"/>
</svg>
