<svg width="30" height="9" viewBox="0 0 30 9" fill="none" xmlns="http://www.w3.org/2000/svg">
<path d="M0.2 4.35449C0.2 2.40245 1.79796 0.804492 3.75 0.804492C5.70204 0.804492 7.3 2.40245 7.3 4.35449C7.3 6.30654 5.70204 7.90449 3.75 7.90449C1.79796 7.90449 0.2 6.30654 0.2 4.35449ZM22.7 4.35449C22.7 2.40245 24.298 0.804492 26.25 0.804492C28.202 0.804492 29.8 2.40245 29.8 4.35449C29.8 6.30654 28.202 7.90449 26.25 7.90449C24.298 7.90449 22.7 6.30654 22.7 4.35449ZM11.45 4.35449C11.45 2.40245 13.048 0.804492 15 0.804492C16.952 0.804492 18.55 2.40245 18.55 4.35449C18.55 6.30654 16.952 7.90449 15 7.90449C13.048 7.90449 11.45 6.30654 11.45 4.35449Z" fill="#B2C2CB" stroke="#2E333A" stroke-width="0.4"/>
</svg>
