<svg width="30" height="30" viewBox="0 0 30 30" fill="none" xmlns="http://www.w3.org/2000/svg">
<mask id="path-1-inside-1_2_16918" fill="white">
<path d="M17.7312 30H12.2712C11.9291 30.0001 11.5973 29.8832 11.3307 29.6687C11.0642 29.4543 10.8789 29.1552 10.8057 28.821L10.1952 25.995C9.38082 25.6382 8.60858 25.1919 7.89273 24.6645L5.13723 25.542C4.81107 25.646 4.45915 25.6353 4.13991 25.5117C3.82067 25.3881 3.55331 25.159 3.38223 24.8625L0.64623 20.136C0.476948 19.8392 0.413404 19.4937 0.465994 19.1561C0.518584 18.8185 0.684194 18.5087 0.93573 18.2775L3.07323 16.3275C2.97602 15.4442 2.97602 14.5528 3.07323 13.6695L0.93573 11.724C0.683837 11.4927 0.518002 11.1826 0.465404 10.8447C0.412805 10.5067 0.476564 10.161 0.64623 9.864L3.37623 5.1345C3.54731 4.83797 3.81467 4.60889 4.13391 4.48528C4.45315 4.36168 4.80507 4.35099 5.13123 4.455L7.88673 5.3325C8.25273 5.0625 8.63373 4.8105 9.02673 4.5825C9.40623 4.3695 9.79623 4.176 10.1952 4.0035L10.8072 1.1805C10.8801 0.846296 11.065 0.547032 11.3312 0.332323C11.5975 0.117615 11.9292 0.000359949 12.2712 0H17.7312C18.0733 0.000359949 18.4049 0.117615 18.6712 0.332323C18.9375 0.547032 19.1224 0.846296 19.1952 1.1805L19.8132 4.005C20.6272 4.36185 21.3989 4.80809 22.1142 5.3355L24.8712 4.458C25.1972 4.35437 25.5488 4.36526 25.8677 4.48884C26.1866 4.61243 26.4537 4.84129 26.6247 5.1375L29.3547 9.867C29.7027 10.4775 29.5827 11.25 29.0652 11.7255L26.9277 13.6755C27.0249 14.5588 27.0249 15.4502 26.9277 16.3335L29.0652 18.2835C29.5827 18.7605 29.7027 19.5315 29.3547 20.142L26.6247 24.8715C26.4536 25.168 26.1863 25.3971 25.867 25.5207C25.5478 25.6443 25.1959 25.655 24.8697 25.551L22.1142 24.6735C21.3989 25.2005 20.6272 25.6463 19.8132 26.0025L19.1952 28.821C19.1221 29.1549 18.9371 29.4538 18.6708 29.6683C18.4046 29.8827 18.0731 29.9997 17.7312 30ZM8.43123 21.3435L9.66123 22.2435C9.93873 22.4475 10.2267 22.635 10.5267 22.806C10.8087 22.9695 11.0967 23.1165 11.3952 23.25L12.7947 23.8635L13.4802 27H16.5252L17.2107 23.862L18.6102 23.2485C19.2207 22.9785 19.8012 22.644 20.3397 22.2495L21.5697 21.3495L24.6327 22.3245L26.1552 19.6875L23.7807 17.523L23.9487 16.005C24.0237 15.3405 24.0237 14.67 23.9487 14.007L23.7807 12.489L26.1567 10.32L24.6327 7.6815L21.5712 8.6565L20.3397 7.7565C19.8009 7.36004 19.2211 7.0226 18.6102 6.75L17.2107 6.1365L16.5252 3H13.4802L12.7902 6.138L11.3952 6.75C10.7835 7.01791 10.2034 7.35297 9.66573 7.749L8.43423 8.649L5.37423 7.674L3.84873 10.32L6.22323 12.4815L6.05523 14.001C5.98023 14.6655 5.98023 15.336 6.05523 15.999L6.22323 17.517L3.84873 19.6815L5.37123 22.3185L8.43123 21.3435ZM14.9952 21C13.4039 21 11.8778 20.3679 10.7526 19.2426C9.62737 18.1174 8.99523 16.5913 8.99523 15C8.99523 13.4087 9.62737 11.8826 10.7526 10.7574C11.8778 9.63214 13.4039 9 14.9952 9C16.5865 9 18.1126 9.63214 19.2379 10.7574C20.3631 11.8826 20.9952 13.4087 20.9952 15C20.9952 16.5913 20.3631 18.1174 19.2379 19.2426C18.1126 20.3679 16.5865 21 14.9952 21ZM14.9952 12C14.4078 12.0006 13.8334 12.1737 13.3434 12.4977C12.8534 12.8218 12.4693 13.2826 12.2388 13.8229C12.0083 14.3633 11.9416 14.9594 12.0468 15.5374C12.152 16.1153 12.4246 16.6497 12.8308 17.0741C13.237 17.4986 13.7588 17.7944 14.3316 17.925C14.9043 18.0555 15.5028 18.015 16.0528 17.8085C16.6028 17.602 17.08 17.2386 17.4253 16.7633C17.7706 16.2881 17.9688 15.7219 17.9952 15.135V15.735V15C17.9952 14.2044 17.6792 13.4413 17.1165 12.8787C16.5539 12.3161 15.7909 12 14.9952 12Z"/>
</mask>
<path d="M17.7312 30H12.2712C11.9291 30.0001 11.5973 29.8832 11.3307 29.6687C11.0642 29.4543 10.8789 29.1552 10.8057 28.821L10.1952 25.995C9.38082 25.6382 8.60858 25.1919 7.89273 24.6645L5.13723 25.542C4.81107 25.646 4.45915 25.6353 4.13991 25.5117C3.82067 25.3881 3.55331 25.159 3.38223 24.8625L0.64623 20.136C0.476948 19.8392 0.413404 19.4937 0.465994 19.1561C0.518584 18.8185 0.684194 18.5087 0.93573 18.2775L3.07323 16.3275C2.97602 15.4442 2.97602 14.5528 3.07323 13.6695L0.93573 11.724C0.683837 11.4927 0.518002 11.1826 0.465404 10.8447C0.412805 10.5067 0.476564 10.161 0.64623 9.864L3.37623 5.1345C3.54731 4.83797 3.81467 4.60889 4.13391 4.48528C4.45315 4.36168 4.80507 4.35099 5.13123 4.455L7.88673 5.3325C8.25273 5.0625 8.63373 4.8105 9.02673 4.5825C9.40623 4.3695 9.79623 4.176 10.1952 4.0035L10.8072 1.1805C10.8801 0.846296 11.065 0.547032 11.3312 0.332323C11.5975 0.117615 11.9292 0.000359949 12.2712 0H17.7312C18.0733 0.000359949 18.4049 0.117615 18.6712 0.332323C18.9375 0.547032 19.1224 0.846296 19.1952 1.1805L19.8132 4.005C20.6272 4.36185 21.3989 4.80809 22.1142 5.3355L24.8712 4.458C25.1972 4.35437 25.5488 4.36526 25.8677 4.48884C26.1866 4.61243 26.4537 4.84129 26.6247 5.1375L29.3547 9.867C29.7027 10.4775 29.5827 11.25 29.0652 11.7255L26.9277 13.6755C27.0249 14.5588 27.0249 15.4502 26.9277 16.3335L29.0652 18.2835C29.5827 18.7605 29.7027 19.5315 29.3547 20.142L26.6247 24.8715C26.4536 25.168 26.1863 25.3971 25.867 25.5207C25.5478 25.6443 25.1959 25.655 24.8697 25.551L22.1142 24.6735C21.3989 25.2005 20.6272 25.6463 19.8132 26.0025L19.1952 28.821C19.1221 29.1549 18.9371 29.4538 18.6708 29.6683C18.4046 29.8827 18.0731 29.9997 17.7312 30ZM8.43123 21.3435L9.66123 22.2435C9.93873 22.4475 10.2267 22.635 10.5267 22.806C10.8087 22.9695 11.0967 23.1165 11.3952 23.25L12.7947 23.8635L13.4802 27H16.5252L17.2107 23.862L18.6102 23.2485C19.2207 22.9785 19.8012 22.644 20.3397 22.2495L21.5697 21.3495L24.6327 22.3245L26.1552 19.6875L23.7807 17.523L23.9487 16.005C24.0237 15.3405 24.0237 14.67 23.9487 14.007L23.7807 12.489L26.1567 10.32L24.6327 7.6815L21.5712 8.6565L20.3397 7.7565C19.8009 7.36004 19.2211 7.0226 18.6102 6.75L17.2107 6.1365L16.5252 3H13.4802L12.7902 6.138L11.3952 6.75C10.7835 7.01791 10.2034 7.35297 9.66573 7.749L8.43423 8.649L5.37423 7.674L3.84873 10.32L6.22323 12.4815L6.05523 14.001C5.98023 14.6655 5.98023 15.336 6.05523 15.999L6.22323 17.517L3.84873 19.6815L5.37123 22.3185L8.43123 21.3435ZM14.9952 21C13.4039 21 11.8778 20.3679 10.7526 19.2426C9.62737 18.1174 8.99523 16.5913 8.99523 15C8.99523 13.4087 9.62737 11.8826 10.7526 10.7574C11.8778 9.63214 13.4039 9 14.9952 9C16.5865 9 18.1126 9.63214 19.2379 10.7574C20.3631 11.8826 20.9952 13.4087 20.9952 15C20.9952 16.5913 20.3631 18.1174 19.2379 19.2426C18.1126 20.3679 16.5865 21 14.9952 21ZM14.9952 12C14.4078 12.0006 13.8334 12.1737 13.3434 12.4977C12.8534 12.8218 12.4693 13.2826 12.2388 13.8229C12.0083 14.3633 11.9416 14.9594 12.0468 15.5374C12.152 16.1153 12.4246 16.6497 12.8308 17.0741C13.237 17.4986 13.7588 17.7944 14.3316 17.925C14.9043 18.0555 15.5028 18.015 16.0528 17.8085C16.6028 17.602 17.08 17.2386 17.4253 16.7633C17.7706 16.2881 17.9688 15.7219 17.9952 15.135V15.735V15C17.9952 14.2044 17.6792 13.4413 17.1165 12.8787C16.5539 12.3161 15.7909 12 14.9952 12Z" fill="#B2C2CB" stroke="#2E333A" mask="url(#path-1-inside-1_2_16918)"/>
</svg>
