<svg width="30" height="31" viewBox="0 0 30 31" fill="none" xmlns="http://www.w3.org/2000/svg">
<path d="M18.5664 2.98089L18.425 2.83948L18.2836 2.9809L14.1031 7.16144L13.9616 7.30286L14.1031 7.44428L14.5678 7.90898C14.5678 7.90898 14.5678 7.90899 14.5678 7.90899C15.0301 8.37135 15.0301 9.12095 14.5678 9.58329L14.6935 9.709L14.5678 9.58329C14.1055 10.0456 13.3558 10.0456 12.8935 9.58329L12.8935 9.58328L12.4287 9.11859L12.2873 8.97719L12.1459 9.1186L2.62641 18.6381L2.48498 18.7795L2.62641 18.9209L3.82312 20.1176L3.96095 20.2554L4.10227 20.1212C5.80128 18.5074 8.48722 18.5338 10.154 20.2006L10.2954 20.0592L10.154 20.2006C11.8207 21.8673 11.8471 24.5533 10.2333 26.2522L10.099 26.3935L10.2369 26.5313L11.4336 27.7281L11.575 27.8696L11.7164 27.7282L21.2359 18.2086L21.3773 18.0672L21.2359 17.9258L20.505 17.1948L20.505 17.1948C20.0426 16.7325 20.0426 15.9828 20.505 15.5205L20.505 15.5205C20.9673 15.0582 21.717 15.0582 22.1793 15.5205L22.9103 16.2515L23.0517 16.3929L23.1931 16.2515L27.3737 12.0709L27.5151 11.9295L27.3737 11.7881L26.0598 10.4742L25.9525 10.3669L25.8202 10.4414C24.1674 11.3719 22.0345 11.1333 20.6278 9.72666C19.2212 8.32003 18.9826 6.18706 19.9132 4.53425L19.9876 4.40201L19.8803 4.2947L18.5664 2.98089ZM16.6093 1.3066L16.4683 1.16558L16.6093 1.30659C17.612 0.303793 19.238 0.303793 20.2407 1.30659L20.3821 1.16517L20.2407 1.3066L22.415 3.4808C22.8773 3.94313 22.8773 4.69276 22.415 5.1551L22.415 5.15511L22.3022 5.26791C21.5332 6.03681 21.5332 7.28345 22.3022 8.05236C23.071 8.82127 24.3177 8.82125 25.0866 8.05236L25.0866 8.05234L25.1994 7.93954C25.6617 7.4772 26.4114 7.4772 26.8737 7.93954L27.0113 7.80194L26.8737 7.93954L29.048 10.1138C30.0507 11.1166 30.0507 12.7424 29.0479 13.7453L13.3908 29.4024C12.3879 30.4052 10.7621 30.4052 9.75927 29.4024L7.58507 27.2282L7.44727 27.366L7.58506 27.2282C7.12272 26.7659 7.12272 26.0162 7.58506 25.5539L7.44364 25.4125L7.58506 25.5539L8.47965 24.6593L8.33823 24.5179L8.47966 24.6593C9.24854 23.8904 9.24856 22.6437 8.47965 21.8749C7.71073 21.106 6.4641 21.106 5.6952 21.8749L4.80062 22.7695C4.33828 23.2318 3.58865 23.2318 3.12631 22.7695L0.952105 20.5952L0.810979 20.7363L0.952098 20.5952C-0.0506994 19.5925 -0.0506994 17.9665 0.952098 16.9638L0.810681 16.8224L0.952103 16.9638L16.6093 1.3066ZM16.0073 11.0228L16.0073 11.0228C16.4696 10.5605 17.2193 10.5605 17.6816 11.0228L17.8073 10.8971L17.6816 11.0228L19.0655 12.4067C19.5278 12.8691 19.5278 13.6187 19.0655 14.081C18.6032 14.5433 17.8535 14.5433 17.3912 14.081L16.0073 12.6971L16.0073 12.6971C15.5449 12.2347 15.5449 11.4851 16.0073 11.0228Z" fill="#B2C2CB" stroke="#2E333A" stroke-width="0.4"/>
</svg>
