<svg width="22" height="20" viewBox="0 0 22 20" fill="none" xmlns="http://www.w3.org/2000/svg">
<path d="M17.9954 3.64364C17.9954 3.66996 18.0158 3.69177 18.0421 3.69353C18.8924 3.75034 19.6893 4.12819 20.2714 4.75056C20.8535 5.37293 21.1773 6.19328 21.1772 7.04545V16.5909C21.1772 17.4818 20.8233 18.3362 20.1934 18.9661C19.5634 19.5961 18.709 19.95 17.8182 19.95H4.18543C3.29455 19.95 2.44015 19.5961 1.8102 18.9661C1.18025 18.3362 0.826343 17.4818 0.826343 16.5909V7.04545C0.826343 7.03882 0.825051 7.03249 0.822706 7.0267V2.75727C0.830079 2.74744 0.83361 2.73519 0.832509 2.72283C0.825905 2.64876 0.822634 2.57442 0.822706 2.50005L0.772705 2.5H0.822706C0.822706 1.85022 1.08083 1.22705 1.54029 0.767588C1.99976 0.308124 2.62293 0.05 3.27271 0.05H15.5454C16.1952 0.05 16.8184 0.308124 17.2778 0.767588C17.7373 1.22705 17.9954 1.85022 17.9954 2.5V3.64364ZM2.13998 4.95C2.11236 4.95 2.08998 4.97239 2.08998 5V16.5909C2.08998 17.1467 2.31075 17.6796 2.70372 18.0726C3.0967 18.4656 3.62968 18.6864 4.18543 18.6864H17.8182C18.3739 18.6864 18.9069 18.4656 19.2999 18.0726C19.6928 17.6796 19.9136 17.1467 19.9136 16.5909V7.04545C19.9136 6.48971 19.6928 5.95672 19.2999 5.56374C18.9069 5.17077 18.3739 4.95 17.8182 4.95H2.13998ZM16.6818 3.68636C16.7094 3.68636 16.7318 3.66398 16.7318 3.63636V2.5C16.7318 1.84511 16.2003 1.31364 15.5454 1.31364H3.27271C2.95806 1.31364 2.65631 1.43863 2.43382 1.66111C2.21133 1.8836 2.08634 2.18536 2.08634 2.5C2.08634 2.81464 2.21133 3.1164 2.43382 3.33889C2.65631 3.56137 2.95806 3.68636 3.27271 3.68636H16.6818ZM14.6441 12.0532C14.7626 11.9347 14.9233 11.8682 15.0909 11.8682H17.3636C17.5312 11.8682 17.6919 11.9347 17.8104 12.0532C17.9289 12.1717 17.9954 12.3324 17.9954 12.5C17.9954 12.6676 17.9289 12.8283 17.8104 12.9468C17.6919 13.0653 17.5312 13.1318 17.3636 13.1318H15.0909C14.9233 13.1318 14.7626 13.0653 14.6441 12.9468C14.5256 12.8283 14.4591 12.6676 14.4591 12.5C14.4591 12.3324 14.5256 12.1717 14.6441 12.0532Z" fill="#B2C2CB" stroke="#2E333A" stroke-width="0.1" stroke-linejoin="round"/>
</svg>
