<svg width="38" height="30" viewBox="0 0 38 30" fill="none" xmlns="http://www.w3.org/2000/svg">
<path d="M16.7731 7.58455V7.90368L17.0909 7.93306C19.8024 8.18378 24.8855 9.03283 29.2819 11.9153C33.6567 14.7837 37.3731 19.6774 37.3731 28.0909H37.373L37.3732 28.0988C37.3805 28.4232 37.284 28.7414 37.0977 29.0071C36.9118 29.2724 36.6462 29.4714 36.3395 29.5753C36.0378 29.6734 35.713 29.6749 35.4104 29.5795C35.1073 29.4839 34.8417 29.2959 34.6508 29.0418L34.643 29.0314L34.6344 29.0216C32.653 26.7559 30.2023 24.9485 27.4524 23.7248C24.7033 22.5016 21.721 21.891 18.7124 21.9355H17.1231H16.7731V22.2855V28.0903C16.7717 28.3894 16.6823 28.6814 16.516 28.9299C16.3495 29.1787 16.1135 29.3729 15.8372 29.4883C15.561 29.6036 15.2569 29.635 14.963 29.5785C14.6696 29.5221 14.3993 29.3807 14.1857 29.1718C14.1853 29.1714 14.1849 29.171 14.1845 29.1706L1.07787 16.064L1.07685 16.063C0.934126 15.9214 0.820843 15.753 0.743537 15.5674C0.66623 15.3819 0.626428 15.1828 0.626428 14.9818C0.626428 14.7808 0.66623 14.5818 0.743537 14.3962C0.820844 14.2107 0.934126 14.0422 1.07685 13.9007L1.07787 13.8997L14.186 0.791588C14.1861 0.791427 14.1863 0.791267 14.1864 0.791106C14.4698 0.510264 14.8521 0.351873 15.2511 0.35C15.6547 0.350195 16.0417 0.510604 16.3271 0.795996C16.6127 1.08156 16.7731 1.46888 16.7731 1.87273V7.58455ZM18.7138 18.8526L18.7166 18.8526C23.9096 18.8272 28.9722 20.478 33.152 23.5597L33.9357 24.1376L33.6992 23.193C32.2024 17.2156 27.9932 14.1349 23.9766 12.5563C19.9682 10.981 16.1207 10.8864 15.2504 10.8864C14.8465 10.8864 14.4592 10.7259 14.1737 10.4404C13.8881 10.1548 13.7277 9.76749 13.7277 9.36364V6.386V5.53972L13.1299 6.13879L4.55281 14.7346L4.30613 14.9818L4.55281 15.229L13.1299 23.8249L13.7277 24.4239V23.5777V20.6L13.7277 20.5996C13.7272 20.2349 13.8575 19.8823 14.0951 19.6056C14.3319 19.3297 14.6597 19.1477 15.0191 19.0925C16.2438 18.9289 17.4782 18.8487 18.7138 18.8526Z" fill="#B2C2CB" stroke="#2E333A" stroke-width="0.7"/>
</svg>
