<svg width="20" height="6" viewBox="0 0 20 6" fill="none" xmlns="http://www.w3.org/2000/svg">
<path d="M0.15 3C0.15 1.70784 1.20784 0.65 2.5 0.65C3.79216 0.65 4.85 1.70784 4.85 3C4.85 4.29216 3.79216 5.35 2.5 5.35C1.20784 5.35 0.15 4.29216 0.15 3ZM15.15 3C15.15 1.70784 16.2078 0.65 17.5 0.65C18.7922 0.65 19.85 1.70784 19.85 3C19.85 4.29216 18.7922 5.35 17.5 5.35C16.2078 5.35 15.15 4.29216 15.15 3ZM7.65 3C7.65 1.70784 8.70784 0.65 10 0.65C11.2922 0.65 12.35 1.70784 12.35 3C12.35 4.29216 11.2922 5.35 10 5.35C8.70784 5.35 7.65 4.29216 7.65 3Z" fill="#B2C2CB" stroke="#2E333A" stroke-width="0.3"/>
</svg>
