<svg width="31" height="32" viewBox="0 0 31 32" fill="none" xmlns="http://www.w3.org/2000/svg">
<path d="M23.8785 4.19403L23.8828 4.444L24.1328 4.43963L27.4656 4.38146C29.1606 4.35187 30.5727 5.71551 30.6023 7.41051L30.6314 9.07692C30.7033 13.1962 27.6604 16.6137 23.674 17.1849L23.531 17.2054L23.4773 17.3396C22.5014 19.7817 20.3507 21.6466 17.726 22.2258L17.5263 22.2699L17.5299 22.4743L17.62 27.6402L17.6244 27.8901L17.8744 27.8858L22.8736 27.7985C23.6559 27.7848 24.3011 28.4079 24.3148 29.1902C24.3284 29.9725 23.7054 30.6177 22.9231 30.6314L9.59175 30.8641C8.80947 30.8778 8.16423 30.2547 8.15058 29.4724C8.13692 28.6901 8.76002 28.0449 9.5423 28.0312L14.5415 27.9439L14.7915 27.9396L14.7871 27.6896L14.697 22.5237L14.6934 22.3193L14.4923 22.2822C11.849 21.7949 9.6345 20.0063 8.57393 17.5997L8.51565 17.4675L8.37196 17.452C4.36811 17.0203 1.20778 13.711 1.13588 9.59177L1.10679 7.92536C1.0772 6.23035 2.44084 4.81827 4.13584 4.78868L7.46867 4.73051L7.71863 4.72614L7.71427 4.47618C7.68455 2.77356 9.0407 1.36923 10.7433 1.33951L20.7418 1.16498C22.4445 1.13526 23.8488 2.49141 23.8785 4.19403ZM4.18529 7.62158L3.93533 7.62595L3.93969 7.87591L3.96878 9.54232C4.00854 11.82 5.51371 13.7174 7.5526 14.4156L7.88977 14.531L7.88355 14.1747L7.77244 7.80901L7.76808 7.55905L7.51812 7.56341L4.18529 7.62158ZM10.7928 4.17241L10.5428 4.17677L10.5472 4.42673L10.7217 14.4252C10.7721 17.3128 13.1749 19.6332 16.0625 19.5828C18.9501 19.5324 21.2705 17.1296 21.2201 14.242L21.0456 4.24348L21.0412 3.99352L20.7912 3.99788L10.7928 4.17241ZM24.0478 13.8926L24.054 14.2489L24.3869 14.1217C26.4002 13.3528 27.8382 11.4041 27.7985 9.12637L27.7694 7.45996L27.765 7.21L27.5151 7.21436L24.1822 7.27254L23.9323 7.2769L23.9366 7.52686L24.0478 13.8926Z" fill="white" stroke="#2E333A" stroke-width="0.5"/>
</svg>
