<svg width="42" height="32" viewBox="0 0 42 32" fill="none" xmlns="http://www.w3.org/2000/svg">
<path d="M9.27848 5.66976L9.37201 5.64446L9.3874 5.54879C9.77098 3.16487 11.7315 1.30952 14.2201 1.26608C16.5684 1.22509 18.5039 2.8164 19.1128 4.98237L19.1441 5.09377L19.2598 5.09175L22.3572 5.03769L22.4728 5.03567L22.5002 4.92332C23.0345 2.73731 24.9132 1.07943 27.2616 1.03844C29.7502 0.995003 31.7743 2.78337 32.2408 5.14862L32.2594 5.2432L32.3532 5.26552C34.797 5.84726 36.8852 7.39315 37.8608 9.61986L37.861 9.63303L37.8621 9.698L37.9103 9.74161L37.9259 9.75568L41.0316 17.9838L41.0314 17.9839L41.0352 17.9925C41.5196 19.0666 41.797 20.2575 41.8188 21.5071C41.9051 26.4504 37.9399 30.5566 32.9965 30.6429C28.5434 30.7206 24.7736 27.5119 24.0066 23.2615L23.9551 22.9762L23.7519 23.1831C23.0796 23.8678 22.164 24.3092 21.1453 24.327C20.1266 24.3448 19.195 23.9355 18.5006 23.2748L18.2903 23.0748L18.2487 23.362C17.6292 27.6367 13.9749 30.9749 9.52183 31.0526C4.57847 31.1389 0.47232 27.1736 0.386033 22.2303C0.36151 20.8253 0.677883 19.4842 1.23858 18.2841L1.24215 18.2765L1.24484 18.2685L3.84916 10.5385L3.88704 10.5378L3.92151 10.4391C4.79692 7.93323 6.86329 6.32306 9.27848 5.66976ZM31.1757 7.19363L31.1755 7.19361L30.1266 7.10325L30.1083 6.05692C30.0941 5.24608 29.8055 4.55907 29.3074 4.07811C28.8094 3.59716 28.1127 3.33263 27.3019 3.34679C26.491 3.36094 25.804 3.64962 25.3231 4.14766C24.8421 4.6457 24.5776 5.34237 24.5917 6.15321L24.6119 7.30738L17.0869 7.43873L17.0668 6.28456C17.0526 5.47372 16.764 4.78671 16.2659 4.30575C15.7679 3.8248 15.0712 3.56027 14.2604 3.57443C13.4495 3.58858 12.7625 3.87726 12.2816 4.3753C11.8006 4.87334 11.5361 5.57001 11.5503 6.38085L11.5685 7.42718L10.5234 7.5541L10.5231 7.55413C8.46721 7.80731 6.83887 9.06549 6.09875 11.1537L6.08969 11.1793L6.09016 11.2064L6.09038 11.2188L5.16736 13.8606L5.04549 14.2094L5.37601 14.0442C6.53418 13.4656 7.83414 13.1185 9.20837 13.0945C12.9564 13.0291 16.2058 15.303 17.6054 18.5621L17.719 18.8267L17.8707 18.5819C18.5233 17.5282 19.693 16.8251 21.014 16.8021C22.3363 16.779 23.5298 17.4421 24.2175 18.4698L24.3777 18.7092L24.482 18.4407C25.7656 15.1348 28.9336 12.7489 32.683 12.6834C34.0738 12.6591 35.3957 12.987 36.5852 13.5395L36.9165 13.6934L36.7889 13.3511L35.7625 10.5968L35.7619 10.5955C35.7533 10.5729 35.7432 10.5531 35.7355 10.5384C35.7324 10.5324 35.7298 10.5274 35.7274 10.523C35.7235 10.5155 35.7204 10.5096 35.7172 10.503C34.9126 8.72758 33.1759 7.36837 31.1757 7.19363ZM3.23203 19.5511L3.23197 19.5512C2.89726 20.3664 2.67782 21.2412 2.69438 22.19C2.75895 25.8892 5.7823 28.8088 9.48154 28.7443C13.1808 28.6797 16.1004 25.6563 16.0358 21.9571C15.9712 18.2579 12.9479 15.3383 9.24866 15.4028C6.55316 15.4499 4.28617 17.0809 3.26977 19.3853L3.26906 19.387C3.25017 19.4312 3.24384 19.4775 3.24033 19.5032L3.23981 19.507C3.23769 19.5223 3.23636 19.5318 3.23467 19.5404C3.23307 19.5485 3.23196 19.5513 3.23203 19.5511ZM39.5105 21.5474C39.4459 17.8481 36.4226 14.9285 32.7233 14.9931C29.0241 15.0576 26.1045 18.081 26.1691 21.7802C26.2336 25.4795 29.257 28.3991 32.9562 28.3345C36.6555 28.2699 39.5751 25.2466 39.5105 21.5474ZM22.5338 20.5391C22.5195 19.7208 21.8727 19.0961 21.0543 19.1104C20.2359 19.1247 19.6113 19.7715 19.6255 20.5899C19.6398 21.4083 20.2867 22.0329 21.1051 22.0186C21.9234 22.0044 22.5481 21.3575 22.5338 20.5391Z" fill="#B2C2CB" stroke="#2E333A" stroke-width="0.3"/>
</svg>
