<svg width="30" height="31" viewBox="0 0 30 31" fill="none" xmlns="http://www.w3.org/2000/svg">
<mask id="path-1-inside-1_2_16565" fill="white">
<path d="M17.7312 30.3545H12.2712C11.9291 30.3545 11.5973 30.2377 11.3307 30.0232C11.0642 29.8088 10.8789 29.5097 10.8057 29.1755L10.1952 26.3495C9.38082 25.9926 8.60858 25.5464 7.89273 25.019L5.13723 25.8965C4.81107 26.0005 4.45915 25.9898 4.13991 25.8662C3.82067 25.7426 3.55331 25.5135 3.38223 25.217L0.64623 20.4905C0.476948 20.1937 0.413404 19.8482 0.465994 19.5106C0.518584 19.173 0.684194 18.8632 0.93573 18.632L3.07323 16.682C2.97602 15.7987 2.97602 14.9073 3.07323 14.024L0.93573 12.0785C0.683837 11.8472 0.518002 11.5371 0.465404 11.1992C0.412805 10.8612 0.476564 10.5154 0.64623 10.2185L3.37623 5.48899C3.54731 5.19247 3.81467 4.96338 4.13391 4.83977C4.45315 4.71617 4.80507 4.70548 5.13123 4.80949L7.88673 5.68699C8.25273 5.41699 8.63373 5.16499 9.02673 4.93699C9.40623 4.72399 9.79623 4.53049 10.1952 4.35799L10.8072 1.53499C10.8801 1.20079 11.065 0.901524 11.3312 0.686815C11.5975 0.472107 11.9292 0.354852 12.2712 0.354492H17.7312C18.0733 0.354852 18.4049 0.472107 18.6712 0.686815C18.9375 0.901524 19.1224 1.20079 19.1952 1.53499L19.8132 4.35949C20.6272 4.71634 21.3989 5.16258 22.1142 5.68999L24.8712 4.81249C25.1972 4.70887 25.5488 4.71975 25.8677 4.84333C26.1866 4.96692 26.4537 5.19579 26.6247 5.49199L29.3547 10.2215C29.7027 10.832 29.5827 11.6045 29.0652 12.08L26.9277 14.03C27.0249 14.9133 27.0249 15.8047 26.9277 16.688L29.0652 18.638C29.5827 19.115 29.7027 19.886 29.3547 20.4965L26.6247 25.226C26.4536 25.5225 26.1863 25.7516 25.867 25.8752C25.5478 25.9988 25.1959 26.0095 24.8697 25.9055L22.1142 25.028C21.3989 25.555 20.6272 26.0008 19.8132 26.357L19.1952 29.1755C19.1221 29.5094 18.9371 29.8083 18.6708 30.0228C18.4046 30.2372 18.0731 30.3542 17.7312 30.3545ZM8.43123 21.698L9.66123 22.598C9.93873 22.802 10.2267 22.9895 10.5267 23.1605C10.8087 23.324 11.0967 23.471 11.3952 23.6045L12.7947 24.218L13.4802 27.3545H16.5252L17.2107 24.2165L18.6102 23.603C19.2207 23.333 19.8012 22.9985 20.3397 22.604L21.5697 21.704L24.6327 22.679L26.1552 20.042L23.7807 17.8775L23.9487 16.3595C24.0237 15.695 24.0237 15.0245 23.9487 14.3615L23.7807 12.8435L26.1567 10.6745L24.6327 8.03599L21.5712 9.01099L20.3397 8.11099C19.8009 7.71453 19.2211 7.37709 18.6102 7.10449L17.2107 6.49099L16.5252 3.35449H13.4802L12.7902 6.49249L11.3952 7.10449C10.7835 7.3724 10.2034 7.70746 9.66573 8.10349L8.43423 9.00349L5.37423 8.02849L3.84873 10.6745L6.22323 12.836L6.05523 14.3555C5.98023 15.02 5.98023 15.6905 6.05523 16.3535L6.22323 17.8715L3.84873 20.036L5.37123 22.673L8.43123 21.698ZM14.9952 21.3545C13.4039 21.3545 11.8778 20.7224 10.7526 19.5971C9.62737 18.4719 8.99523 16.9458 8.99523 15.3545C8.99523 13.7632 9.62737 12.2371 10.7526 11.1119C11.8778 9.98663 13.4039 9.35449 14.9952 9.35449C16.5865 9.35449 18.1126 9.98663 19.2379 11.1119C20.3631 12.2371 20.9952 13.7632 20.9952 15.3545C20.9952 16.9458 20.3631 18.4719 19.2379 19.5971C18.1126 20.7224 16.5865 21.3545 14.9952 21.3545ZM14.9952 12.3545C14.4078 12.3551 13.8334 12.5281 13.3434 12.8522C12.8534 13.1763 12.4693 13.6371 12.2388 14.1774C12.0083 14.7178 11.9416 15.3139 12.0468 15.8919C12.152 16.4698 12.4246 17.0042 12.8308 17.4286C13.237 17.8531 13.7588 18.1489 14.3316 18.2795C14.9043 18.41 15.5028 18.3695 16.0528 18.163C16.6028 17.9565 17.08 17.5931 17.4253 17.1178C17.7706 16.6426 17.9688 16.0764 17.9952 15.4895V16.0895V15.3545C17.9952 14.5588 17.6792 13.7958 17.1165 13.2332C16.5539 12.6706 15.7909 12.3545 14.9952 12.3545Z"/>
</mask>
<path d="M17.7312 30.3545H12.2712C11.9291 30.3545 11.5973 30.2377 11.3307 30.0232C11.0642 29.8088 10.8789 29.5097 10.8057 29.1755L10.1952 26.3495C9.38082 25.9926 8.60858 25.5464 7.89273 25.019L5.13723 25.8965C4.81107 26.0005 4.45915 25.9898 4.13991 25.8662C3.82067 25.7426 3.55331 25.5135 3.38223 25.217L0.64623 20.4905C0.476948 20.1937 0.413404 19.8482 0.465994 19.5106C0.518584 19.173 0.684194 18.8632 0.93573 18.632L3.07323 16.682C2.97602 15.7987 2.97602 14.9073 3.07323 14.024L0.93573 12.0785C0.683837 11.8472 0.518002 11.5371 0.465404 11.1992C0.412805 10.8612 0.476564 10.5154 0.64623 10.2185L3.37623 5.48899C3.54731 5.19247 3.81467 4.96338 4.13391 4.83977C4.45315 4.71617 4.80507 4.70548 5.13123 4.80949L7.88673 5.68699C8.25273 5.41699 8.63373 5.16499 9.02673 4.93699C9.40623 4.72399 9.79623 4.53049 10.1952 4.35799L10.8072 1.53499C10.8801 1.20079 11.065 0.901524 11.3312 0.686815C11.5975 0.472107 11.9292 0.354852 12.2712 0.354492H17.7312C18.0733 0.354852 18.4049 0.472107 18.6712 0.686815C18.9375 0.901524 19.1224 1.20079 19.1952 1.53499L19.8132 4.35949C20.6272 4.71634 21.3989 5.16258 22.1142 5.68999L24.8712 4.81249C25.1972 4.70887 25.5488 4.71975 25.8677 4.84333C26.1866 4.96692 26.4537 5.19579 26.6247 5.49199L29.3547 10.2215C29.7027 10.832 29.5827 11.6045 29.0652 12.08L26.9277 14.03C27.0249 14.9133 27.0249 15.8047 26.9277 16.688L29.0652 18.638C29.5827 19.115 29.7027 19.886 29.3547 20.4965L26.6247 25.226C26.4536 25.5225 26.1863 25.7516 25.867 25.8752C25.5478 25.9988 25.1959 26.0095 24.8697 25.9055L22.1142 25.028C21.3989 25.555 20.6272 26.0008 19.8132 26.357L19.1952 29.1755C19.1221 29.5094 18.9371 29.8083 18.6708 30.0228C18.4046 30.2372 18.0731 30.3542 17.7312 30.3545ZM8.43123 21.698L9.66123 22.598C9.93873 22.802 10.2267 22.9895 10.5267 23.1605C10.8087 23.324 11.0967 23.471 11.3952 23.6045L12.7947 24.218L13.4802 27.3545H16.5252L17.2107 24.2165L18.6102 23.603C19.2207 23.333 19.8012 22.9985 20.3397 22.604L21.5697 21.704L24.6327 22.679L26.1552 20.042L23.7807 17.8775L23.9487 16.3595C24.0237 15.695 24.0237 15.0245 23.9487 14.3615L23.7807 12.8435L26.1567 10.6745L24.6327 8.03599L21.5712 9.01099L20.3397 8.11099C19.8009 7.71453 19.2211 7.37709 18.6102 7.10449L17.2107 6.49099L16.5252 3.35449H13.4802L12.7902 6.49249L11.3952 7.10449C10.7835 7.3724 10.2034 7.70746 9.66573 8.10349L8.43423 9.00349L5.37423 8.02849L3.84873 10.6745L6.22323 12.836L6.05523 14.3555C5.98023 15.02 5.98023 15.6905 6.05523 16.3535L6.22323 17.8715L3.84873 20.036L5.37123 22.673L8.43123 21.698ZM14.9952 21.3545C13.4039 21.3545 11.8778 20.7224 10.7526 19.5971C9.62737 18.4719 8.99523 16.9458 8.99523 15.3545C8.99523 13.7632 9.62737 12.2371 10.7526 11.1119C11.8778 9.98663 13.4039 9.35449 14.9952 9.35449C16.5865 9.35449 18.1126 9.98663 19.2379 11.1119C20.3631 12.2371 20.9952 13.7632 20.9952 15.3545C20.9952 16.9458 20.3631 18.4719 19.2379 19.5971C18.1126 20.7224 16.5865 21.3545 14.9952 21.3545ZM14.9952 12.3545C14.4078 12.3551 13.8334 12.5281 13.3434 12.8522C12.8534 13.1763 12.4693 13.6371 12.2388 14.1774C12.0083 14.7178 11.9416 15.3139 12.0468 15.8919C12.152 16.4698 12.4246 17.0042 12.8308 17.4286C13.237 17.8531 13.7588 18.1489 14.3316 18.2795C14.9043 18.41 15.5028 18.3695 16.0528 18.163C16.6028 17.9565 17.08 17.5931 17.4253 17.1178C17.7706 16.6426 17.9688 16.0764 17.9952 15.4895V16.0895V15.3545C17.9952 14.5588 17.6792 13.7958 17.1165 13.2332C16.5539 12.6706 15.7909 12.3545 14.9952 12.3545Z" fill="#B2C2CB" stroke="#2E333A" mask="url(#path-1-inside-1_2_16565)"/>
</svg>
