<svg width="20" height="20" viewBox="0 0 20 20" fill="none" xmlns="http://www.w3.org/2000/svg">
<path d="M10.1996 0.605845L10.3619 0.506647L10.1996 0.605849L14.0953 6.98064C14.4406 7.54578 14.0339 8.27098 13.3716 8.27098H5.58023C4.91793 8.27098 4.51121 7.54577 4.85656 6.98064L8.75225 0.605849L8.58199 0.501804L8.75225 0.605845C9.08292 0.0647184 9.86894 0.0647184 10.1996 0.605845ZM9.64661 2.95857L9.47637 2.67983L9.30549 2.95818L7.27219 6.27015L7.08516 6.57479H7.44263H11.4987H11.8553L11.6694 6.27054L9.64661 2.95857ZM2.13928 12.9874H1.93928V13.1874V17.3798V17.5798H2.13928H6.33165H6.53165V17.3798V13.1874V12.9874H6.33165H2.13928ZM10.724 15.2836C10.724 12.7843 12.7411 10.7672 15.2404 10.7672C17.7397 10.7672 19.7569 12.7843 19.7569 15.2836C19.7569 17.7829 17.7397 19.8 15.2404 19.8C12.7411 19.8 10.724 17.7829 10.724 15.2836ZM12.4202 15.2836C12.4202 16.8404 13.6836 18.1038 15.2404 18.1038C16.7973 18.1038 18.0607 16.8404 18.0607 15.2836C18.0607 13.7268 16.7973 12.4633 15.2404 12.4633C13.6836 12.4633 12.4202 13.7268 12.4202 15.2836ZM2.13928 19.276C1.09204 19.276 0.243091 18.427 0.243091 17.3798V13.1874C0.243091 12.1401 1.09204 11.2912 2.13928 11.2912H6.33165C7.37892 11.2912 8.22784 12.1401 8.22784 13.1874V17.3798C8.22784 18.427 7.37892 19.276 6.33165 19.276H2.13928Z" fill="#B2C2CB" stroke="#2E333A" stroke-width="0.4"/>
</svg>
