<svg width="20" height="20" viewBox="0 0 20 20" fill="none" xmlns="http://www.w3.org/2000/svg">
<path d="M13.5881 0.540454L13.482 0.646517C12.82 -0.0155056 11.7466 -0.0155056 11.0847 0.646517L10.9786 0.540454L11.0847 0.64652L0.64652 11.0847L0.540454 10.9786L0.646517 11.0847C-0.0155056 11.7466 -0.0155056 12.82 0.646517 13.482L0.540454 13.5881L0.646522 13.482L2.09599 14.9315C2.39771 15.2332 2.88691 15.2332 3.18863 14.9315L3.78502 14.3352C4.30412 13.816 5.14576 13.816 5.66488 14.3352C5.66488 14.3352 5.66489 14.3352 5.66489 14.3352M13.5881 0.540454L14.9624 3.36989C14.5018 3.83042 14.5018 4.57709 14.9624 5.03763L14.8563 5.14369M13.5881 0.540454L13.482 0.646522L14.9315 2.09599C15.2332 2.3977 15.2332 2.8869 14.9315 3.18862L14.9315 3.18863L14.8564 3.26382M13.5881 0.540454L14.8564 3.26382M5.66489 14.3352L5.55882 14.4412C6.01935 14.9017 6.01935 15.6484 5.55882 16.1089M5.66489 14.3352C6.184 14.8542 6.18399 15.6959 5.66489 16.215L5.55882 16.1089M5.66489 14.3352L5.55882 16.1089M5.55882 16.1089L5.66489 16.215L5.06849 16.8114L4.96243 16.7053L5.06849 16.8114C4.76678 17.1131 4.76678 17.6023 5.06849 17.904L4.96243 18.0101L5.0685 17.904L6.51797 19.3535C7.17999 20.0155 8.25335 20.0155 8.91539 19.3535L19.3535 8.9154C20.0155 8.25335 20.0155 7.17999 19.3535 6.51797L17.904 5.06849L18.0101 4.96242L17.904 5.06848C17.6023 4.76677 17.1131 4.76677 16.8114 5.06847L16.7362 5.14368L16.7362 5.1437C16.2171 5.66279 15.3754 5.66281 14.8564 5.1437C14.8563 5.1437 14.8563 5.14369 14.8563 5.14369M14.8563 5.14369C14.3372 4.62457 14.3372 3.78293 14.8564 3.26382M14.8563 5.14369L14.8564 3.26382M12.3894 1.73915L12.2833 1.63309L12.1773 1.73915L9.39026 4.52618L9.28419 4.63225L9.39026 4.73831L9.70007 5.04811C9.70007 5.04811 9.70007 5.04811 9.70007 5.04812C10.0018 5.34985 10.0018 5.83903 9.70007 6.14075L9.80614 6.24681L9.70007 6.14075C9.39837 6.44247 8.90915 6.44247 8.60745 6.14075L8.60744 6.14074L8.29761 5.83095L8.19155 5.72489L8.08549 5.83095L1.73915 12.1773L1.63308 12.2833L1.73915 12.3894L2.53696 13.1872L2.64033 13.2906L2.74633 13.1899C3.87246 12.1203 5.65277 12.1377 6.75751 13.2425L6.86358 13.1365L6.75752 13.2425C7.86227 14.3473 7.87979 16.1276 6.8101 17.2536L6.70942 17.3596L6.81279 17.463L7.6106 18.2609L7.71666 18.367L7.82273 18.2609L14.169 11.9145L14.2751 11.8085L14.169 11.7024L13.6818 11.2151L13.6818 11.2151C13.38 10.9134 13.38 10.4242 13.6818 10.1225L13.6818 10.1225C13.9835 9.82077 14.4727 9.82077 14.7744 10.1225L15.2617 10.6098L15.3678 10.7159L15.4739 10.6098L18.2609 7.82273L18.367 7.71666L18.2609 7.6106L17.385 6.73471L17.3045 6.65424L17.2053 6.71007C16.1098 7.32681 14.696 7.16867 13.7636 6.23633C12.8313 5.304 12.6732 3.89021 13.29 2.79468L13.3458 2.6955L13.2653 2.61502L12.3894 1.73915ZM10.6833 7.124L10.6833 7.12398C10.985 6.82227 11.4742 6.82227 11.7759 7.12398L11.882 7.01792L11.7759 7.12399L12.6985 8.04659C13.0003 8.34832 13.0002 8.83752 12.6986 9.13922C12.3969 9.44092 11.9076 9.44092 11.6059 9.13922L10.6833 8.21661L10.6833 8.21659C10.3815 7.91489 10.3815 7.42571 10.6833 7.124Z" fill="#B2C2CB" stroke="#2E333A" stroke-width="0.3"/>
</svg>
