<svg width="30" height="30" viewBox="0 0 30 30" fill="none" xmlns="http://www.w3.org/2000/svg">
<path d="M14.4273 4.46392L14.2145 4.11549L14.0009 4.46343L10.951 9.43139L10.7172 9.81219H11.164H17.2482H17.6938L17.4615 9.43188L14.4273 4.46392ZM15.3421 0.882696L15.5474 0.757241L15.3421 0.882701L21.1856 10.4449C21.724 11.3259 21.09 12.4565 20.0574 12.4565H8.37041C7.33791 12.4565 6.70385 11.3259 7.24224 10.4449L13.0858 0.882702L12.8732 0.75282L13.0858 0.882696C13.6013 0.0391014 14.8266 0.0391014 15.3421 0.882696ZM3.20898 19.5311H2.95898V19.7811V26.0697V26.3197H3.20898H9.49753H9.74753V26.0697V19.7811V19.5311H9.49753H3.20898ZM16.0361 22.9254C16.0361 19.1488 19.0842 16.1007 22.8607 16.1007C26.6373 16.1007 29.6854 19.1488 29.6854 22.9254C29.6854 26.7019 26.6373 29.75 22.8607 29.75C19.0842 29.75 16.0361 26.7019 16.0361 22.9254ZM18.6804 22.9254C18.6804 25.233 20.5531 27.1057 22.8607 27.1057C25.1683 27.1057 27.0411 25.233 27.0411 22.9254C27.0411 20.6177 25.1683 18.745 22.8607 18.745C20.5531 18.745 18.6804 20.6177 18.6804 22.9254ZM3.20898 28.9639C1.61051 28.9639 0.314697 27.6682 0.314697 26.0697L0.314697 19.7811C0.314697 18.1826 1.61051 16.8868 3.20898 16.8868H9.49753C11.096 16.8868 12.3918 18.1826 12.3918 19.7811V26.0697C12.3918 27.6682 11.096 28.9639 9.49753 28.9639H3.20898Z" fill="white" stroke="#2E333A" stroke-width="0.5"/>
</svg>
